<svg xmlns="http://www.w3.org/2000/svg" xmlns:xlink="http://www.w3.org/1999/xlink" width="512" height="512" viewBox="0 0 512 512" role="img" aria-label="sunbleach surface" xmlns:c2pa="http://c2pa.org/manifest"><metadata><c2pa:manifest>AAAWgmp1bWIAAAAeanVtZGMycGEAEQAQgAAAqgA4m3EDYzJwYQAAABZcanVtYgAAAEdqdW1kYzJtYQARABCAAACqADibcQN1cm46YzJwYTowMWM4MGY3Ni1jMmExLTQxNjktYTRkZi0xZjQ3NzU0MTVhMTYAAAADl2p1bWIAAAApanVtZGMyYXMAEQAQgAAAqgA4m3EDYzJwYS5hc3NlcnRpb25zAAAAALxqdW1iAAAARGp1bWRjYm9yABEAEIAAAKoAOJtxE2MycGEuaW5ncmVkaWVudC52MwAAAAAYYzJzaOdw/0OGejbXCjXGFLPF338AAABwY2JvcqNpZGM6Zm9ybWF0bWltYWdlL3N2Zyt4bWxqaW5zdGFuY2VJRHgseG1wOmlpZDpjNWExMmE5My03YmY1LTQ2YzgtYjRhNS1jMjA0N2VlZmM0MmRscmVsYXRpb25zaGlwaHBhcmVudE9mAAAB4mp1bWIAAABBanVtZGNib3IAEQAQgAAAqgA4m3ETYzJwYS5hY3Rpb25zLnYyAAAAABhjMnNo7IkyTDDWWllq4iDkbuHjbwAAAZljYm9yomdhY3Rpb25zgqJmYWN0aW9ua2MycGEub3BlbmVkanBhcmFtZXRlcnOha2luZ3JlZGllbnRzgaJjdXJseC1zZWxmI2p1bWJmPWMycGEuYXNzZXJ0aW9ucy9jMnBhLmluZ3JlZGllbnQudjNkaGFzaFggJm2VRnGlKVZFQCoMWdkI0dZSxztJ8uTaCX4DqEjg5AakZmFjdGlvbngdY29tLmFudGhyb3BpYy5jbGF1ZGUucHJvdmlkZWRqcGFyYW1ldGVyc6F4H2NvbS5hbnRocm9waWMub3JpZ2luLWNvbmZpZGVuY2VndW5rbm93bmtkZXNjcmlwdGlvbnhmQ2xhdWRlIHByb3ZpZGVkIHRoaXMgZmlsZSBhdCB0aGUgcmVxdWVzdCBvZiBhIHVzZXIgYW5kIG1heSBoYXZlIGNyZWF0ZWQgb3IgbW9kaWZpZWQgdGhlIGZpbGUgY29udGVudHMubXNvZnR3YXJlQWdlbnShZG5hbWVmQ2xhdWRlcmFsbEFjdGlvbnNJbmNsdWRlZPUAAADIanVtYgAAAEBqdW1kY2JvcgARABCAAACqADibcRNjMnBhLmhhc2guZGF0YQAAAAAYYzJzaCluIoZnVz4VR159ztrgSywAAACAY2JvcqVjYWxnZnNoYTI1NmNwYWRNAAAAAAAAAAAAAAAAAGRoYXNoWCC+LUFXb779xL5GgiBZu5zLHQKeafjh+eMCEgH/h6HocWRuYW1lbmp1bWJmIG1hbmlmZXN0amV4Y2x1c2lvbnOBomVzdGFydBjrZmxlbmd0aBkeBAAAAj5qdW1iAAAAJ2p1bWRjMmNsABEAEIAAAKoAOJtxA2MycGEuY2xhaW0udjIAAAACD2Nib3KlY2FsZ2ZzaGEyNTZpc2lnbmF0dXJleE1zZWxmI2p1bWJmPS9jMnBhL3VybjpjMnBhOjAxYzgwZjc2LWMyYTEtNDE2OS1hNGRmLTFmNDc3NTQxNWExNi9jMnBhLnNpZ25hdHVyZWppbnN0YW5jZUlEeCx4bXA6aWlkOjRkY2Q2N2MzLTBjZWItNDI5ZS04MWQ2LTc0YWM2M2Y3OTUxMnJjcmVhdGVkX2Fzc2VydGlvbnODomN1cmx4LXNlbGYjanVtYmY9YzJwYS5hc3NlcnRpb25zL2MycGEuaW5ncmVkaWVudC52M2RoYXNoWCAmbZVGcaUpVkVAKgxZ2QjR1lLHO0ny5NoJfgOoSODkBqJjdXJseCpzZWxmI2p1bWJmPWMycGEuYXNzZXJ0aW9ucy9jMnBhLmFjdGlvbnMudjJkaGFzaFgg+G4mRw9wi8sCwZB/rUa6s3q8mw+6NzdngERbSo9p7ZmiY3VybHgpc2VsZiNqdW1iZj1jMnBhLmFzc2VydGlvbnMvYzJwYS5oYXNoLmRhdGFkaGFzaFgg8Ua6RYZXI/Vh170oCsTXMbbslgnDA0b76UWLLwWnzwF0Y2xhaW1fZ2VuZXJhdG9yX2luZm+jZG5hbWVvQW50aHJvcGljIEZpbGVzZ3ZlcnNpb25lMS4wLjBrc3BlY1ZlcnNpb25lMi40LjAAABA4anVtYgAAAChqdW1kYzJjcwARABCAAACqADibcQNjMnBhLnNpZ25hdHVyZQAAABAIY2JvctKEWQISogEmGCFZAgowggIGMIIBjaADAgECAhRA5aAK7sI50L64g/oGQgU9Z1UTADAKBggqhkjOPQQDAzBJMRcwFQYDVQQKEw5BbnRocm9waWMsIFBCQzEuMCwGA1UEAxMlQW50aHJvcGljIENvbnRlbnQgQ3JlZGVudGlhbHMgUm9vdCBDQTAeFw0yNjA4MDcxODQzNTZaFw0yODA4MDYxOTQzNTZaMEQxFzAVBgNVBAoTDkFudGhyb3BpYywgUEJDMSkwJwYDVQQDEyBBbnRocm9waWMgQ2xhdWRlIENvbnRlbnQgU2lnbmluZzBZMBMGByqGSM49AgEGCCqGSM49AwEHA0IABJh6CmvLUBgFFNU0vUKlOVtE6djd17L5SuwX0LemFisBM3dkd/3cyjxFA3Qo5S46fX0/ihY0VZ7mfb9KF703t5OjWDBWMA4GA1UdDwEB/wQEAwIHgDAVBgNVHSUEDjAMBgorBgEEAYPoXgIBMAwGA1UdEwEB/wQCMAAwHwYDVR0jBBgwFoAUzlHiBIFOZFsj+OPEz5o+nMHXXMIwCgYIKoZIzj0EAwMDZwAwZAIwMXMdFJ4BetLLVY7ORuE9noqbbAZOZn/aArXyTwFAZfKrPzxF2vPoJNf1+UCdg1XGAjBwX1zd9WGqYkqmL5SFqw1QySjr1zJfpJM9+1rdDwSPLMOPOjKuiXjoU/pUUeG9RwmhY3BhZFkNngAAAAAAAAAAAAAAAAAAAAAAAAAAAAAAAAAAAAAAAAAAAAAAAAAAAAAAAAAAAAAAAAAAAAAAAAAAAAAAAAAAAAAAAAAAAAAAAAAAAAAAAAAAAAAAAAAAAAAAAAAAAAAAAAAAAAAAAAAAAAAAAAAAAAAAAAAAAAAAAAAAAAAAAAAAAAAAAAAAAAAAAAAAAAAAAAAAAAAAAAAAAAAAAAAAAAAAAAAAAAAAAAAAAAAAAAAAAAAAAAAAAAAAAAAAAAAAAAAAAAAAAAAAAAAAAAAAAAAAAAAAAAAAAAAAAAAAAAAAAAAAAAAAAAAAAAAAAAAAAAAAAAAAAAAAAAAAAAAAAAAAAAAAAAAAAAAAAAAAAAAAAAAAAAAAAAAAAAAAAAAAAAAAAAAAAAAAAAAAAAAAAAAAAAAAAAAAAAAAAAAAAAAAAAAAAAAAAAAAAAAAAAAAAAAAAAAAAAAAAAAAAAAAAAAAAAAAAAAAAAAAAAAAAAAAAAAAAAAAAAAAAAAAAAAAAAAAAAAAAAAAAAAAAAAAAAAAAAAAAAAAAAAAAAAAAAAAAAAAAAAAAAAAAAAAAAAAAAAAAAAAAAAAAAAAAAAAAAAAAAAAAAAAAAAAAAAAAAAAAAAAAAAAAAAAAAAAAAAAAAAAAAAAAAAAAAAAAAAAAAAAAAAAAAAAAAAAAAAAAAAAAAAAAAAAAAAAAAAAAAAAAAAAAAAAAAAAAAAAAAAAAAAAAAAAAAAAAAAAAAAAAAAAAAAAAAAAAAAAAAAAAAAAAAAAAAAAAAAAAAAAAAAAAAAAAAAAAAAAAAAAAAAAAAAAAAAAAAAAAAAAAAAAAAAAAAAAAAAAAAAAAAAAAAAAAAAAAAAAAAAAAAAAAAAAAAAAAAAAAAAAAAAAAAAAAAAAAAAAAAAAAAAAAAAAAAAAAAAAAAAAAAAAAAAAAAAAAAAAAAAAAAAAAAAAAAAAAAAAAAAAAAAAAAAAAAAAAAAAAAAAAAAAAAAAAAAAAAAAAAAAAAAAAAAAAAAAAAAAAAAAAAAAAAAAAAAAAAAAAAAAAAAAAAAAAAAAAAAAAAAAAAAAAAAAAAAAAAAAAAAAAAAAAAAAAAAAAAAAAAAAAAAAAAAAAAAAAAAAAAAAAAAAAAAAAAAAAAAAAAAAAAAAAAAAAAAAAAAAAAAAAAAAAAAAAAAAAAAAAAAAAAAAAAAAAAAAAAAAAAAAAAAAAAAAAAAAAAAAAAAAAAAAAAAAAAAAAAAAAAAAAAAAAAAAAAAAAAAAAAAAAAAAAAAAAAAAAAAAAAAAAAAAAAAAAAAAAAAAAAAAAAAAAAAAAAAAAAAAAAAAAAAAAAAAAAAAAAAAAAAAAAAAAAAAAAAAAAAAAAAAAAAAAAAAAAAAAAAAAAAAAAAAAAAAAAAAAAAAAAAAAAAAAAAAAAAAAAAAAAAAAAAAAAAAAAAAAAAAAAAAAAAAAAAAAAAAAAAAAAAAAAAAAAAAAAAAAAAAAAAAAAAAAAAAAAAAAAAAAAAAAAAAAAAAAAAAAAAAAAAAAAAAAAAAAAAAAAAAAAAAAAAAAAAAAAAAAAAAAAAAAAAAAAAAAAAAAAAAAAAAAAAAAAAAAAAAAAAAAAAAAAAAAAAAAAAAAAAAAAAAAAAAAAAAAAAAAAAAAAAAAAAAAAAAAAAAAAAAAAAAAAAAAAAAAAAAAAAAAAAAAAAAAAAAAAAAAAAAAAAAAAAAAAAAAAAAAAAAAAAAAAAAAAAAAAAAAAAAAAAAAAAAAAAAAAAAAAAAAAAAAAAAAAAAAAAAAAAAAAAAAAAAAAAAAAAAAAAAAAAAAAAAAAAAAAAAAAAAAAAAAAAAAAAAAAAAAAAAAAAAAAAAAAAAAAAAAAAAAAAAAAAAAAAAAAAAAAAAAAAAAAAAAAAAAAAAAAAAAAAAAAAAAAAAAAAAAAAAAAAAAAAAAAAAAAAAAAAAAAAAAAAAAAAAAAAAAAAAAAAAAAAAAAAAAAAAAAAAAAAAAAAAAAAAAAAAAAAAAAAAAAAAAAAAAAAAAAAAAAAAAAAAAAAAAAAAAAAAAAAAAAAAAAAAAAAAAAAAAAAAAAAAAAAAAAAAAAAAAAAAAAAAAAAAAAAAAAAAAAAAAAAAAAAAAAAAAAAAAAAAAAAAAAAAAAAAAAAAAAAAAAAAAAAAAAAAAAAAAAAAAAAAAAAAAAAAAAAAAAAAAAAAAAAAAAAAAAAAAAAAAAAAAAAAAAAAAAAAAAAAAAAAAAAAAAAAAAAAAAAAAAAAAAAAAAAAAAAAAAAAAAAAAAAAAAAAAAAAAAAAAAAAAAAAAAAAAAAAAAAAAAAAAAAAAAAAAAAAAAAAAAAAAAAAAAAAAAAAAAAAAAAAAAAAAAAAAAAAAAAAAAAAAAAAAAAAAAAAAAAAAAAAAAAAAAAAAAAAAAAAAAAAAAAAAAAAAAAAAAAAAAAAAAAAAAAAAAAAAAAAAAAAAAAAAAAAAAAAAAAAAAAAAAAAAAAAAAAAAAAAAAAAAAAAAAAAAAAAAAAAAAAAAAAAAAAAAAAAAAAAAAAAAAAAAAAAAAAAAAAAAAAAAAAAAAAAAAAAAAAAAAAAAAAAAAAAAAAAAAAAAAAAAAAAAAAAAAAAAAAAAAAAAAAAAAAAAAAAAAAAAAAAAAAAAAAAAAAAAAAAAAAAAAAAAAAAAAAAAAAAAAAAAAAAAAAAAAAAAAAAAAAAAAAAAAAAAAAAAAAAAAAAAAAAAAAAAAAAAAAAAAAAAAAAAAAAAAAAAAAAAAAAAAAAAAAAAAAAAAAAAAAAAAAAAAAAAAAAAAAAAAAAAAAAAAAAAAAAAAAAAAAAAAAAAAAAAAAAAAAAAAAAAAAAAAAAAAAAAAAAAAAAAAAAAAAAAAAAAAAAAAAAAAAAAAAAAAAAAAAAAAAAAAAAAAAAAAAAAAAAAAAAAAAAAAAAAAAAAAAAAAAAAAAAAAAAAAAAAAAAAAAAAAAAAAAAAAAAAAAAAAAAAAAAAAAAAAAAAAAAAAAAAAAAAAAAAAAAAAAAAAAAAAAAAAAAAAAAAAAAAAAAAAAAAAAAAAAAAAAAAAAAAAAAAAAAAAAAAAAAAAAAAAAAAAAAAAAAAAAAAAAAAAAAAAAAAAAAAAAAAAAAAAAAAAAAAAAAAAAAAAAAAAAAAAAAAAAAAAAAAAAAAAAAAAAAAAAAAAAAAAAAAAAAAAAAAAAAAAAAAAAAAAAAAAAAAAAAAAAAAAAAAAAAAAAAAAAAAAAAAAAAAAAAAAAAAAAAAAAAAAAAAAAAAAAAAAAAAAAAAAAAAAAAAAAAAAAAAAAAAAAAAAAAAAAAAAAAAAAAAAAAAAAAAAAAAAAAAAAAAAAAAAAAAAAAAAAAAAAAAAAAAAAAAAAAAAAAAAAAAAAAAAAAAAAAAAAAAAAAAAAAAAAAAAAAAAAAAAAAAAAAAAAAAAAAAAAAAAAAAAAAAAAAAAAAAAAAAAAAAAAAAAAAAAAAAAAAAAAAAAAAAAAAAAAAAAAAAAAAAAAAAAAAAAAAAAAAAAAAAAAAAAAAAAAAAAAAAAAAAAAAAAAAAAAAAAAAAAAAAAAAAAAAAAAAAAAAAAAAAAAAAAAAAAAAAAAAAAAAAAAAAAAAAAAAAAAAAAAAAAAAAAAAAAAAAAAAAAAAAAAAAAAAAAAAAAAAAAAAAAAAAAAAAAAAAAAAAAAAAAAAAAAAAAAAAAAAAAAAAAAAAAAAAAAAAAAAAAAAAAAAAAAAAAAAAAAAAAAAAAAAAAAAAAAAAAAAAAAAAAAAAAAAAAAAAAAAAAAAAAAAAAAAAAAAAAAAAAAAAAAAAAAAAAAAAAAAAAAAAAAAAAAAAAAAAAAAAAAAAAAAAAAAAAAAAAAAAAAAAAAAAAAAAAAAAAAAAAAAAAAAAAAAAAAAAAAAAAAAAAAAAAAAAAAAAAAAAAAAAAAAAAAAAAAAAAAAAAAAAAAAAAAAAAAAAAAAAAAAAAAAAAAAAAAAAAAAAAAAAAAAAAAAAAAAAAAAAAAAAAAAAAAAAAAAAAAAAAAAAAAAAAAAAAAAAAAAAAAAAAAAAAAAAAAAAAAAAAAAAAAAAAAAAAAAAAAAAAAAAAAAAAAAAAAAAAAAAAAAAAAAAAAAAAAAAAAAAAAAAAAAAAAAAAAAAAAAAAAAAAAAAAAAAAAAAAAAAAAAAAAAAAAAAAAAAAAAAAAAAAAAAAAAAAAAAAAAAAAAAAAAAAAAAAAAAAAAAAAAAAAAAAAAAAAAAAAAAAAAAAAAAAAAAAAAAAAAAAAAAAAAAAAAAAAAAAAAAAAAAAAAAAAAAAAAAAAAAAAAAAAAAAAAAAAAAAAAAAAAAAAAAAAAAAAAAAAAAAAAAAAAAAAAAAAAAAAAAAAAAAAAAAAAAAAAAAAAAAAAAAAAAAAAAAAAAAAAAAAAAAAAAAAAAAAAAAAAAAAAAAAAAAAAAAAAAAAAAAAAAAAAAAAAAAAAAAAAAAAAAAAAAAAAAAAAAAAAAAAAAAAAAAAAAAAAAAAAAAAAAAAAAAAAAAAAAAAAAAAAAAAAAAAAAAAAAAAAAAAAAAAAAAAAAAAAAAAAAAAAAAAAAAAAAAAAAAAAAAAAAAAAAAAAAAAAAAAAAAAAAAAAAAAAAAAAAAAAAAAAAAAAAAAAAAAAAAAAAAAAAAAAAAAAAAAAAAAAAAAAAAAAAPZYQAFgFuwBCGGrZs6KNkWc/CRN3eINCCr6uhQ7V4iI3zYfJ9imj14+gKMK4yGQTNsACiG5V0MRhFzrYf6bF45tOCc=</c2pa:manifest></metadata><defs><filter id="grit" x="0" y="0" width="100%" height="100%" filterUnits="userSpaceOnUse"><feTurbulence type="fractalNoise" baseFrequency=".0625" numOctaves="3" stitchTiles="stitch" seed="20"/><feColorMatrix type="matrix" values="0 0 0 0 0  0 0 0 0 0  0 0 0 0 0  0 0 0 -1.6 .95"/></filter><filter id="fine" x="0" y="0" width="100%" height="100%" filterUnits="userSpaceOnUse"><feTurbulence type="fractalNoise" baseFrequency=".5" numOctaves="1" stitchTiles="stitch" seed="17"/><feColorMatrix type="matrix" values="0 0 0 0 1  0 0 0 0 1  0 0 0 0 1  0 0 0 -2 1.1"/></filter><g id="m"><ellipse cx="482" cy="354" rx="47" ry="42" fill="#946440" opacity=".35" transform="rotate(17 482 354)"/><ellipse cx="246" cy="340" rx="55" ry="31" fill="#523218" opacity=".35" transform="rotate(176 246 340)"/><ellipse cx="478" cy="25" rx="62" ry="34" fill="#523218" opacity=".35" transform="rotate(68 478 25)"/><ellipse cx="351" cy="108" rx="78" ry="61" fill="#946440" opacity=".35" transform="rotate(78 351 108)"/><ellipse cx="59" cy="170" rx="70" ry="41" fill="#946440" opacity=".35" transform="rotate(5 59 170)"/><ellipse cx="152" cy="401" rx="65" ry="37" fill="#523218" opacity=".35" transform="rotate(159 152 401)"/><ellipse cx="277" cy="498" rx="42" ry="31" fill="#946440" opacity=".35" transform="rotate(162 277 498)"/><ellipse cx="415" cy="301" rx="75" ry="60" fill="#523218" opacity=".35" transform="rotate(54 415 301)"/><ellipse cx="490" cy="161" rx="69" ry="64" fill="#523218" opacity=".35" transform="rotate(2 490 161)"/><ellipse cx="60" cy="278" rx="38" ry="26" fill="#523218" opacity=".35" transform="rotate(21 60 278)"/><ellipse cx="271" cy="34" rx="5.4" ry="4.0" fill="#523218" stroke="#15131b" stroke-width="1.5" opacity=".85"/><ellipse cx="319" cy="271" rx="3.4" ry="2.6" fill="#946440" stroke="#15131b" stroke-width="1.5" opacity=".85"/><ellipse cx="328" cy="305" rx="8.5" ry="6.3" fill="#946440" stroke="#15131b" stroke-width="1.5" opacity=".85"/><ellipse cx="106" cy="115" rx="5.6" ry="4.2" fill="#946440" stroke="#15131b" stroke-width="1.5" opacity=".85"/><ellipse cx="191" cy="243" rx="8.0" ry="6.0" fill="#946440" stroke="#15131b" stroke-width="1.5" opacity=".85"/><ellipse cx="7" cy="350" rx="8.7" ry="6.5" fill="#946440" stroke="#15131b" stroke-width="1.5" opacity=".85"/><ellipse cx="385" cy="241" rx="5.3" ry="3.9" fill="#523218" stroke="#15131b" stroke-width="1.5" opacity=".85"/><ellipse cx="108" cy="9" rx="8.6" ry="6.4" fill="#946440" stroke="#15131b" stroke-width="1.5" opacity=".85"/><ellipse cx="59" cy="364" rx="5.9" ry="4.4" fill="#523218" stroke="#15131b" stroke-width="1.5" opacity=".85"/><ellipse cx="310" cy="142" rx="4.0" ry="3.0" fill="#946440" stroke="#15131b" stroke-width="1.5" opacity=".85"/><ellipse cx="442" cy="6" rx="6.6" ry="5.0" fill="#523218" stroke="#15131b" stroke-width="1.5" opacity=".85"/><ellipse cx="459" cy="193" rx="6.0" ry="4.5" fill="#946440" stroke="#15131b" stroke-width="1.5" opacity=".85"/><ellipse cx="176" cy="155" rx="5.3" ry="4.0" fill="#523218" stroke="#15131b" stroke-width="1.5" opacity=".85"/><ellipse cx="291" cy="13" rx="6.3" ry="4.7" fill="#946440" stroke="#15131b" stroke-width="1.5" opacity=".85"/><ellipse cx="436" cy="481" rx="8.4" ry="6.3" fill="#523218" stroke="#15131b" stroke-width="1.5" opacity=".85"/><ellipse cx="165" cy="130" rx="7.8" ry="5.8" fill="#523218" stroke="#15131b" stroke-width="1.5" opacity=".85"/><ellipse cx="418" cy="146" rx="8.0" ry="6.0" fill="#946440" stroke="#15131b" stroke-width="1.5" opacity=".85"/><ellipse cx="17" cy="396" rx="4.1" ry="3.1" fill="#523218" stroke="#15131b" stroke-width="1.5" opacity=".85"/><ellipse cx="61" cy="165" rx="7.6" ry="5.7" fill="#946440" stroke="#15131b" stroke-width="1.5" opacity=".85"/><ellipse cx="75" cy="329" rx="6.3" ry="4.7" fill="#946440" stroke="#15131b" stroke-width="1.5" opacity=".85"/><ellipse cx="72" cy="98" rx="4.0" ry="3.0" fill="#946440" stroke="#15131b" stroke-width="1.5" opacity=".85"/><ellipse cx="225" cy="131" rx="6.4" ry="4.8" fill="#946440" stroke="#15131b" stroke-width="1.5" opacity=".85"/><ellipse cx="233" cy="296" rx="8.0" ry="6.0" fill="#523218" stroke="#15131b" stroke-width="1.5" opacity=".85"/><ellipse cx="127" cy="325" rx="8.9" ry="6.7" fill="#523218" stroke="#15131b" stroke-width="1.5" opacity=".85"/><ellipse cx="211" cy="58" rx="6.3" ry="4.8" fill="#946440" stroke="#15131b" stroke-width="1.5" opacity=".85"/><ellipse cx="377" cy="67" rx="8.1" ry="6.1" fill="#946440" stroke="#15131b" stroke-width="1.5" opacity=".85"/><ellipse cx="454" cy="432" rx="7.9" ry="5.9" fill="#946440" stroke="#15131b" stroke-width="1.5" opacity=".85"/><ellipse cx="290" cy="379" rx="6.4" ry="4.8" fill="#523218" stroke="#15131b" stroke-width="1.5" opacity=".85"/><ellipse cx="489" cy="122" rx="8.4" ry="6.3" fill="#946440" stroke="#15131b" stroke-width="1.5" opacity=".85"/><ellipse cx="323" cy="262" rx="7.4" ry="5.5" fill="#523218" stroke="#15131b" stroke-width="1.5" opacity=".85"/><path d="M-20 13 q64 -10 128 0 q64 10 128 0 q64 -10 128 0 q64 10 128 0" fill="none" stroke="#946440" stroke-width="4" opacity=".5"/><path d="M-20 74 q64 -10 128 0 q64 10 128 0 q64 -10 128 0 q64 10 128 0" fill="none" stroke="#946440" stroke-width="4" opacity=".5"/><path d="M-20 134 q64 -10 128 0 q64 10 128 0 q64 -10 128 0 q64 10 128 0" fill="none" stroke="#946440" stroke-width="4" opacity=".5"/><path d="M-20 193 q64 -10 128 0 q64 10 128 0 q64 -10 128 0 q64 10 128 0" fill="none" stroke="#946440" stroke-width="4" opacity=".5"/><path d="M-20 262 q64 -10 128 0 q64 10 128 0 q64 -10 128 0 q64 10 128 0" fill="none" stroke="#946440" stroke-width="4" opacity=".5"/><path d="M-20 334 q64 -10 128 0 q64 10 128 0 q64 -10 128 0 q64 10 128 0" fill="none" stroke="#946440" stroke-width="4" opacity=".5"/><path d="M-20 389 q64 -10 128 0 q64 10 128 0 q64 -10 128 0 q64 10 128 0" fill="none" stroke="#946440" stroke-width="4" opacity=".5"/><path d="M-20 454 q64 -10 128 0 q64 10 128 0 q64 -10 128 0 q64 10 128 0" fill="none" stroke="#946440" stroke-width="4" opacity=".5"/><g transform="translate(79 224) rotate(-17)" fill="#523218" opacity=".85"><ellipse cx="0" cy="6" rx="9" ry="7"/><circle cx="-9" cy="-6" r="3.6"/><circle cx="-3" cy="-10" r="3.6"/><circle cx="4" cy="-10" r="3.6"/><circle cx="10" cy="-6" r="3.6"/></g><g transform="translate(24 8) rotate(169)" fill="#523218" opacity=".85"><ellipse cx="0" cy="6" rx="9" ry="7"/><circle cx="-9" cy="-6" r="3.6"/><circle cx="-3" cy="-10" r="3.6"/><circle cx="4" cy="-10" r="3.6"/><circle cx="10" cy="-6" r="3.6"/></g><g transform="translate(414 293) rotate(163)" fill="#523218" opacity=".85"><ellipse cx="0" cy="6" rx="9" ry="7"/><circle cx="-9" cy="-6" r="3.6"/><circle cx="-3" cy="-10" r="3.6"/><circle cx="4" cy="-10" r="3.6"/><circle cx="10" cy="-6" r="3.6"/></g><g transform="translate(125 433) rotate(-4)" fill="#523218" opacity=".85"><ellipse cx="0" cy="6" rx="9" ry="7"/><circle cx="-9" cy="-6" r="3.6"/><circle cx="-3" cy="-10" r="3.6"/><circle cx="4" cy="-10" r="3.6"/><circle cx="10" cy="-6" r="3.6"/></g><g transform="translate(268 388) rotate(19)" fill="#523218" opacity=".85"><ellipse cx="0" cy="6" rx="9" ry="7"/><circle cx="-9" cy="-6" r="3.6"/><circle cx="-3" cy="-10" r="3.6"/><circle cx="4" cy="-10" r="3.6"/><circle cx="10" cy="-6" r="3.6"/></g><g transform="translate(186 212) rotate(6)" fill="#523218" opacity=".85"><ellipse cx="0" cy="6" rx="9" ry="7"/><circle cx="-9" cy="-6" r="3.6"/><circle cx="-3" cy="-10" r="3.6"/><circle cx="4" cy="-10" r="3.6"/><circle cx="10" cy="-6" r="3.6"/></g><g transform="translate(340 503) rotate(161)" fill="#523218" opacity=".85"><ellipse cx="0" cy="6" rx="9" ry="7"/><circle cx="-9" cy="-6" r="3.6"/><circle cx="-3" cy="-10" r="3.6"/><circle cx="4" cy="-10" r="3.6"/><circle cx="10" cy="-6" r="3.6"/></g><g transform="translate(422 34) rotate(165)" fill="#523218" opacity=".85"><ellipse cx="0" cy="6" rx="9" ry="7"/><circle cx="-9" cy="-6" r="3.6"/><circle cx="-3" cy="-10" r="3.6"/><circle cx="4" cy="-10" r="3.6"/><circle cx="10" cy="-6" r="3.6"/></g><g transform="translate(451 260) rotate(199)" fill="#523218" opacity=".85"><ellipse cx="0" cy="6" rx="9" ry="7"/><circle cx="-9" cy="-6" r="3.6"/><circle cx="-3" cy="-10" r="3.6"/><circle cx="4" cy="-10" r="3.6"/><circle cx="10" cy="-6" r="3.6"/></g><path d="M23 209 q48 -1 96 0" fill="none" stroke="#946440" stroke-width="4.4" stroke-linecap="round" opacity=".7"/><path d="M21 307 q29 -5 58 0" fill="none" stroke="#523218" stroke-width="3.5" stroke-linecap="round" opacity=".7"/><path d="M178 493 q41 -4 82 0" fill="none" stroke="#946440" stroke-width="3.3" stroke-linecap="round" opacity=".7"/><path d="M450 501 q39 -4 78 0" fill="none" stroke="#946440" stroke-width="3.5" stroke-linecap="round" opacity=".7"/><path d="M227 264 q53 2 107 0" fill="none" stroke="#523218" stroke-width="5.3" stroke-linecap="round" opacity=".7"/><path d="M234 480 q48 0 95 0" fill="none" stroke="#523218" stroke-width="3.5" stroke-linecap="round" opacity=".7"/><path d="M483 458 q50 1 100 0" fill="none" stroke="#946440" stroke-width="4.2" stroke-linecap="round" opacity=".7"/></g></defs><rect width="512" height="512" fill="#7a4e2e"/><rect width="512" height="512" filter="url(#grit)" opacity=".55"/><use href="#m"/><use href="#m" x="-512" y="-512"/><use href="#m" x="-512" y="0"/><use href="#m" x="-512" y="512"/><use href="#m" x="0" y="-512"/><use href="#m" x="0" y="512"/><use href="#m" x="512" y="-512"/><use href="#m" x="512" y="0"/><use href="#m" x="512" y="512"/><rect width="512" height="512" filter="url(#fine)" opacity=".08"/></svg>