<svg xmlns="http://www.w3.org/2000/svg" width="800" height="500" viewBox="0 0 800 500" role="img" aria-label="Kidnapped by fans" xmlns:c2pa="http://c2pa.org/manifest"><metadata><c2pa:manifest>AAAWgmp1bWIAAAAeanVtZGMycGEAEQAQgAAAqgA4m3EDYzJwYQAAABZcanVtYgAAAEdqdW1kYzJtYQARABCAAACqADibcQN1cm46YzJwYTozNWMxODkwMS1hMzE2LTQ3MDMtYmU1YS0wZjJiOGM1MzBkMTgAAAADl2p1bWIAAAApanVtZGMyYXMAEQAQgAAAqgA4m3EDYzJwYS5hc3NlcnRpb25zAAAAALxqdW1iAAAARGp1bWRjYm9yABEAEIAAAKoAOJtxE2MycGEuaW5ncmVkaWVudC52MwAAAAAYYzJzaMly3twdkZD9+x4HK/VG7pcAAABwY2JvcqNpZGM6Zm9ybWF0bWltYWdlL3N2Zyt4bWxqaW5zdGFuY2VJRHgseG1wOmlpZDo4YjFjZGQyMC00NmVlLTQ0NzgtYjBhOC1iNGU3ZmI0MzVmYTNscmVsYXRpb25zaGlwaHBhcmVudE9mAAAB4mp1bWIAAABBanVtZGNib3IAEQAQgAAAqgA4m3ETYzJwYS5hY3Rpb25zLnYyAAAAABhjMnNogCHLxOO287bjPNpi/UDwbAAAAZljYm9yomdhY3Rpb25zgqJmYWN0aW9ua2MycGEub3BlbmVkanBhcmFtZXRlcnOha2luZ3JlZGllbnRzgaJjdXJseC1zZWxmI2p1bWJmPWMycGEuYXNzZXJ0aW9ucy9jMnBhLmluZ3JlZGllbnQudjNkaGFzaFggYLPSysASEB9J9VPEVE8ZzvPJsds9Gusua8GhpGjOgVykZmFjdGlvbngdY29tLmFudGhyb3BpYy5jbGF1ZGUucHJvdmlkZWRqcGFyYW1ldGVyc6F4H2NvbS5hbnRocm9waWMub3JpZ2luLWNvbmZpZGVuY2VndW5rbm93bmtkZXNjcmlwdGlvbnhmQ2xhdWRlIHByb3ZpZGVkIHRoaXMgZmlsZSBhdCB0aGUgcmVxdWVzdCBvZiBhIHVzZXIgYW5kIG1heSBoYXZlIGNyZWF0ZWQgb3IgbW9kaWZpZWQgdGhlIGZpbGUgY29udGVudHMubXNvZnR3YXJlQWdlbnShZG5hbWVmQ2xhdWRlcmFsbEFjdGlvbnNJbmNsdWRlZPUAAADIanVtYgAAAEBqdW1kY2JvcgARABCAAACqADibcRNjMnBhLmhhc2guZGF0YQAAAAAYYzJzaP6M6bKzc5GvczQcsfnXnd4AAACAY2JvcqVjYWxnZnNoYTI1NmNwYWRNAAAAAAAAAAAAAAAAAGRoYXNoWCDx70VJ9dZ3FDnIIgo3+1V7W3v+kygWQcbREnwmSXrSwGRuYW1lbmp1bWJmIG1hbmlmZXN0amV4Y2x1c2lvbnOBomVzdGFydBjAZmxlbmd0aBkeBAAAAj5qdW1iAAAAJ2p1bWRjMmNsABEAEIAAAKoAOJtxA2MycGEuY2xhaW0udjIAAAACD2Nib3KlY2FsZ2ZzaGEyNTZpc2lnbmF0dXJleE1zZWxmI2p1bWJmPS9jMnBhL3VybjpjMnBhOjM1YzE4OTAxLWEzMTYtNDcwMy1iZTVhLTBmMmI4YzUzMGQxOC9jMnBhLnNpZ25hdHVyZWppbnN0YW5jZUlEeCx4bXA6aWlkOjQ1ODFmNzZjLTFkYzctNDc3OS1hNGJlLTU4MDJkZjczNGM2NXJjcmVhdGVkX2Fzc2VydGlvbnODomN1cmx4LXNlbGYjanVtYmY9YzJwYS5hc3NlcnRpb25zL2MycGEuaW5ncmVkaWVudC52M2RoYXNoWCBgs9LKwBIQH0n1U8RUTxnO88mx2z0a6y5rwaGkaM6BXKJjdXJseCpzZWxmI2p1bWJmPWMycGEuYXNzZXJ0aW9ucy9jMnBhLmFjdGlvbnMudjJkaGFzaFggVDx9LpAB1jH5sjmBwq+n7wrhPFLBrz4nW6Di8m5qBwiiY3VybHgpc2VsZiNqdW1iZj1jMnBhLmFzc2VydGlvbnMvYzJwYS5oYXNoLmRhdGFkaGFzaFggj9khlK1A2v1+szuFuOxsleSQO8aGwH4mBsAJg6auTNx0Y2xhaW1fZ2VuZXJhdG9yX2luZm+jZG5hbWVvQW50aHJvcGljIEZpbGVzZ3ZlcnNpb25lMS4wLjBrc3BlY1ZlcnNpb25lMi40LjAAABA4anVtYgAAAChqdW1kYzJjcwARABCAAACqADibcQNjMnBhLnNpZ25hdHVyZQAAABAIY2JvctKEWQISogEmGCFZAgowggIGMIIBjaADAgECAhRA5aAK7sI50L64g/oGQgU9Z1UTADAKBggqhkjOPQQDAzBJMRcwFQYDVQQKEw5BbnRocm9waWMsIFBCQzEuMCwGA1UEAxMlQW50aHJvcGljIENvbnRlbnQgQ3JlZGVudGlhbHMgUm9vdCBDQTAeFw0yNjA4MDcxODQzNTZaFw0yODA4MDYxOTQzNTZaMEQxFzAVBgNVBAoTDkFudGhyb3BpYywgUEJDMSkwJwYDVQQDEyBBbnRocm9waWMgQ2xhdWRlIENvbnRlbnQgU2lnbmluZzBZMBMGByqGSM49AgEGCCqGSM49AwEHA0IABJh6CmvLUBgFFNU0vUKlOVtE6djd17L5SuwX0LemFisBM3dkd/3cyjxFA3Qo5S46fX0/ihY0VZ7mfb9KF703t5OjWDBWMA4GA1UdDwEB/wQEAwIHgDAVBgNVHSUEDjAMBgorBgEEAYPoXgIBMAwGA1UdEwEB/wQCMAAwHwYDVR0jBBgwFoAUzlHiBIFOZFsj+OPEz5o+nMHXXMIwCgYIKoZIzj0EAwMDZwAwZAIwMXMdFJ4BetLLVY7ORuE9noqbbAZOZn/aArXyTwFAZfKrPzxF2vPoJNf1+UCdg1XGAjBwX1zd9WGqYkqmL5SFqw1QySjr1zJfpJM9+1rdDwSPLMOPOjKuiXjoU/pUUeG9RwmhY3BhZFkNngAAAAAAAAAAAAAAAAAAAAAAAAAAAAAAAAAAAAAAAAAAAAAAAAAAAAAAAAAAAAAAAAAAAAAAAAAAAAAAAAAAAAAAAAAAAAAAAAAAAAAAAAAAAAAAAAAAAAAAAAAAAAAAAAAAAAAAAAAAAAAAAAAAAAAAAAAAAAAAAAAAAAAAAAAAAAAAAAAAAAAAAAAAAAAAAAAAAAAAAAAAAAAAAAAAAAAAAAAAAAAAAAAAAAAAAAAAAAAAAAAAAAAAAAAAAAAAAAAAAAAAAAAAAAAAAAAAAAAAAAAAAAAAAAAAAAAAAAAAAAAAAAAAAAAAAAAAAAAAAAAAAAAAAAAAAAAAAAAAAAAAAAAAAAAAAAAAAAAAAAAAAAAAAAAAAAAAAAAAAAAAAAAAAAAAAAAAAAAAAAAAAAAAAAAAAAAAAAAAAAAAAAAAAAAAAAAAAAAAAAAAAAAAAAAAAAAAAAAAAAAAAAAAAAAAAAAAAAAAAAAAAAAAAAAAAAAAAAAAAAAAAAAAAAAAAAAAAAAAAAAAAAAAAAAAAAAAAAAAAAAAAAAAAAAAAAAAAAAAAAAAAAAAAAAAAAAAAAAAAAAAAAAAAAAAAAAAAAAAAAAAAAAAAAAAAAAAAAAAAAAAAAAAAAAAAAAAAAAAAAAAAAAAAAAAAAAAAAAAAAAAAAAAAAAAAAAAAAAAAAAAAAAAAAAAAAAAAAAAAAAAAAAAAAAAAAAAAAAAAAAAAAAAAAAAAAAAAAAAAAAAAAAAAAAAAAAAAAAAAAAAAAAAAAAAAAAAAAAAAAAAAAAAAAAAAAAAAAAAAAAAAAAAAAAAAAAAAAAAAAAAAAAAAAAAAAAAAAAAAAAAAAAAAAAAAAAAAAAAAAAAAAAAAAAAAAAAAAAAAAAAAAAAAAAAAAAAAAAAAAAAAAAAAAAAAAAAAAAAAAAAAAAAAAAAAAAAAAAAAAAAAAAAAAAAAAAAAAAAAAAAAAAAAAAAAAAAAAAAAAAAAAAAAAAAAAAAAAAAAAAAAAAAAAAAAAAAAAAAAAAAAAAAAAAAAAAAAAAAAAAAAAAAAAAAAAAAAAAAAAAAAAAAAAAAAAAAAAAAAAAAAAAAAAAAAAAAAAAAAAAAAAAAAAAAAAAAAAAAAAAAAAAAAAAAAAAAAAAAAAAAAAAAAAAAAAAAAAAAAAAAAAAAAAAAAAAAAAAAAAAAAAAAAAAAAAAAAAAAAAAAAAAAAAAAAAAAAAAAAAAAAAAAAAAAAAAAAAAAAAAAAAAAAAAAAAAAAAAAAAAAAAAAAAAAAAAAAAAAAAAAAAAAAAAAAAAAAAAAAAAAAAAAAAAAAAAAAAAAAAAAAAAAAAAAAAAAAAAAAAAAAAAAAAAAAAAAAAAAAAAAAAAAAAAAAAAAAAAAAAAAAAAAAAAAAAAAAAAAAAAAAAAAAAAAAAAAAAAAAAAAAAAAAAAAAAAAAAAAAAAAAAAAAAAAAAAAAAAAAAAAAAAAAAAAAAAAAAAAAAAAAAAAAAAAAAAAAAAAAAAAAAAAAAAAAAAAAAAAAAAAAAAAAAAAAAAAAAAAAAAAAAAAAAAAAAAAAAAAAAAAAAAAAAAAAAAAAAAAAAAAAAAAAAAAAAAAAAAAAAAAAAAAAAAAAAAAAAAAAAAAAAAAAAAAAAAAAAAAAAAAAAAAAAAAAAAAAAAAAAAAAAAAAAAAAAAAAAAAAAAAAAAAAAAAAAAAAAAAAAAAAAAAAAAAAAAAAAAAAAAAAAAAAAAAAAAAAAAAAAAAAAAAAAAAAAAAAAAAAAAAAAAAAAAAAAAAAAAAAAAAAAAAAAAAAAAAAAAAAAAAAAAAAAAAAAAAAAAAAAAAAAAAAAAAAAAAAAAAAAAAAAAAAAAAAAAAAAAAAAAAAAAAAAAAAAAAAAAAAAAAAAAAAAAAAAAAAAAAAAAAAAAAAAAAAAAAAAAAAAAAAAAAAAAAAAAAAAAAAAAAAAAAAAAAAAAAAAAAAAAAAAAAAAAAAAAAAAAAAAAAAAAAAAAAAAAAAAAAAAAAAAAAAAAAAAAAAAAAAAAAAAAAAAAAAAAAAAAAAAAAAAAAAAAAAAAAAAAAAAAAAAAAAAAAAAAAAAAAAAAAAAAAAAAAAAAAAAAAAAAAAAAAAAAAAAAAAAAAAAAAAAAAAAAAAAAAAAAAAAAAAAAAAAAAAAAAAAAAAAAAAAAAAAAAAAAAAAAAAAAAAAAAAAAAAAAAAAAAAAAAAAAAAAAAAAAAAAAAAAAAAAAAAAAAAAAAAAAAAAAAAAAAAAAAAAAAAAAAAAAAAAAAAAAAAAAAAAAAAAAAAAAAAAAAAAAAAAAAAAAAAAAAAAAAAAAAAAAAAAAAAAAAAAAAAAAAAAAAAAAAAAAAAAAAAAAAAAAAAAAAAAAAAAAAAAAAAAAAAAAAAAAAAAAAAAAAAAAAAAAAAAAAAAAAAAAAAAAAAAAAAAAAAAAAAAAAAAAAAAAAAAAAAAAAAAAAAAAAAAAAAAAAAAAAAAAAAAAAAAAAAAAAAAAAAAAAAAAAAAAAAAAAAAAAAAAAAAAAAAAAAAAAAAAAAAAAAAAAAAAAAAAAAAAAAAAAAAAAAAAAAAAAAAAAAAAAAAAAAAAAAAAAAAAAAAAAAAAAAAAAAAAAAAAAAAAAAAAAAAAAAAAAAAAAAAAAAAAAAAAAAAAAAAAAAAAAAAAAAAAAAAAAAAAAAAAAAAAAAAAAAAAAAAAAAAAAAAAAAAAAAAAAAAAAAAAAAAAAAAAAAAAAAAAAAAAAAAAAAAAAAAAAAAAAAAAAAAAAAAAAAAAAAAAAAAAAAAAAAAAAAAAAAAAAAAAAAAAAAAAAAAAAAAAAAAAAAAAAAAAAAAAAAAAAAAAAAAAAAAAAAAAAAAAAAAAAAAAAAAAAAAAAAAAAAAAAAAAAAAAAAAAAAAAAAAAAAAAAAAAAAAAAAAAAAAAAAAAAAAAAAAAAAAAAAAAAAAAAAAAAAAAAAAAAAAAAAAAAAAAAAAAAAAAAAAAAAAAAAAAAAAAAAAAAAAAAAAAAAAAAAAAAAAAAAAAAAAAAAAAAAAAAAAAAAAAAAAAAAAAAAAAAAAAAAAAAAAAAAAAAAAAAAAAAAAAAAAAAAAAAAAAAAAAAAAAAAAAAAAAAAAAAAAAAAAAAAAAAAAAAAAAAAAAAAAAAAAAAAAAAAAAAAAAAAAAAAAAAAAAAAAAAAAAAAAAAAAAAAAAAAAAAAAAAAAAAAAAAAAAAAAAAAAAAAAAAAAAAAAAAAAAAAAAAAAAAAAAAAAAAAAAAAAAAAAAAAAAAAAAAAAAAAAAAAAAAAAAAAAAAAAAAAAAAAAAAAAAAAAAAAAAAAAAAAAAAAAAAAAAAAAAAAAAAAAAAAAAAAAAAAAAAAAAAAAAAAAAAAAAAAAAAAAAAAAAAAAAAAAAAAAAAAAAAAAAAAAAAAAAAAAAAAAAAAAAAAAAAAAAAAAAAAAAAAAAAAAAAAAAAAAAAAAAAAAAAAAAAAAAAAAAAAAAAAAAAAAAAAAAAAAAAAAAAAAAAAAAAAAAAAAAAAAAAAAAAAAAAAAAAAAAAAAAAAAAAAAAAAAAAAAAAAAAAAAAAAAAAAAAAAAAAAAAAAAAAAAAAAAAAAAAAAAAAAAAAAAAAAAAAAAAAAAAAAAAAAAAAAAAAAAAAAAAAAAAAAAAAAAAAAAAAAAAAAAAAAAAAAAAAAAAAAAAAAAAAAAAAAAAAAAAAAAAAAAAAAAAAAAAAAAAAAAAAAAAAAAAAAAAAAAAAAAAAAAAAAAAAAAAAAAAAAAAAAAAAAAAAAAAAAAAAAAAAAAAAAAAAAAAAAAAAAAAAAAAAAAAAAAAAAAAAAAAAAAAAAAAAAAAAAAAAAAAAAAAAAAAAAAAAAAAAAAAAAAAAAAAAAAAAAAAAAAAAAAAAAAAAAAAAAAAAAAAAAAAAAAAAAAAAAAAAAAAAAAAAAAAAAAAAAAAAAAAAAAAAAAAAAAAAAAAAAAAAAAAAAAAAAAAAAAAAAAAAAAAAAAAAAAAAAAAAAAAAAAAAAAAAAAAAAAAAAAAAAAAAAAAAAAAAAAAAAAAAAAAAAAAAAAAAAAAAAAAAAAAAAAAAAAAAAAAAAAAAAAAAAAAAAAAAAAAAAAAAAAAAAAAAAAAAAAAAAAAAAAAAAAAAAAAAAAAAAAAAAAAAAAAAAAAAAAAAAAAAAAAAAAAAAAAAAAAAAAAAAAAAAAAAAAAAAAAAAAAAAAAAAAAAAAAAAAAAAAAAAAAAAAAAAAAAAAAAAAAAAAAAAAAAAAAAAAAAAAAAAAAAAAAAAAAAAAAAAAAAAAAAAAAAAAAAAAAAAAAAAAAAAAAAAAAAAAAAAAAAAAAAAAAAAAAAAAAAAAAAAAAAAAAAAAAAAAAAAAAAAAAAAAAAAAAAAAAAAAAAAAAAAAAAAAAAAAAAAAAAAAAAAAAAAAAAAAAAAAAAAAAAAAAAAAAAAAAAAAAAAAAAAAAAAAAAAAAAAAAAAAAAAAAAAAAAAAAAAAAAAAAAAAAAAAAAAAAAAAAAAAAAAAAAAAAAAAAAAAAAAAAAAAAAAAAAAAAAAAAAAAAAAAAAAAAAAAAAAAAAAAAAAAAAAAAAAAAAAAAAAAAAAAAAAAAAAAAAAAAAAAAAAAAAAAAAAAAAAAAAAAAAAAAAAAAAAAAAAAAAAAAAAAAAAAAAAAAAAPZYQLAk/ZuuZSVxlE1F5FHAVBq8+0PUgd96U6YjBN/COSoA799Dr0LnZiOGzFatFD9PEZLgO01pGZghqhww6lEezfI=</c2pa:manifest></metadata><defs><linearGradient id="vig" x1="0" y1="0" x2="0" y2="1"><stop offset="0" stop-color="#000" stop-opacity=".25"/><stop offset=".5" stop-color="#000" stop-opacity="0"/><stop offset="1" stop-color="#000" stop-opacity=".35"/></linearGradient><pattern id="tape" width="16" height="16" patternUnits="userSpaceOnUse" patternTransform="rotate(45)"><rect width="16" height="16" fill="#F4C542"/><rect width="8" height="16" fill="#1B1A22"/></pattern><filter id="grain" x="0" y="0" width="100%" height="100%"><feTurbulence type="fractalNoise" baseFrequency="1.1" numOctaves="2" seed="3"/><feColorMatrix type="matrix" values="0 0 0 0 .08  0 0 0 0 .06  0 0 0 0 .05  0 0 0 -2.4 1.3"/></filter></defs><rect width="800" height="500" fill="#2a1a36"/><line x1="400" y1="0" x2="400" y2="60" stroke="#15131b" stroke-width="4"/><path d="M400 100 L1069 307 L1050 360Z" fill="#F04E98" opacity=".16"/><path d="M400 100 L935 551 L898 592Z" fill="#9BE84B" opacity=".16"/><path d="M400 100 L718 724 L667 747Z" fill="#3FD6E0" opacity=".16"/><path d="M400 100 L450 798 L394 800Z" fill="#F4C542" opacity=".16"/><path d="M400 100 L174 762 L121 742Z" fill="#F04E98" opacity=".16"/><path d="M400 100 L-66 622 L-107 583Z" fill="#9BE84B" opacity=".16"/><path d="M400 100 L-233 399 L-255 348Z" fill="#3FD6E0" opacity=".16"/><circle cx="400" cy="100" r="44" fill="#c9ccd2" stroke="#15131b" stroke-width="5"/><line x1="364" y1="70" x2="364" y2="130" stroke="#15131b" stroke-width="2" opacity=".6"/><line x1="376" y1="66" x2="376" y2="134" stroke="#15131b" stroke-width="2" opacity=".6"/><line x1="388" y1="62" x2="388" y2="138" stroke="#15131b" stroke-width="2" opacity=".6"/><line x1="400" y1="58" x2="400" y2="142" stroke="#15131b" stroke-width="2" opacity=".6"/><line x1="412" y1="62" x2="412" y2="138" stroke="#15131b" stroke-width="2" opacity=".6"/><line x1="424" y1="66" x2="424" y2="134" stroke="#15131b" stroke-width="2" opacity=".6"/><line x1="436" y1="70" x2="436" y2="130" stroke="#15131b" stroke-width="2" opacity=".6"/><line x1="358" y1="80" x2="442" y2="80" stroke="#15131b" stroke-width="2" opacity=".6"/><line x1="358" y1="100" x2="442" y2="100" stroke="#15131b" stroke-width="2" opacity=".6"/><line x1="358" y1="120" x2="442" y2="120" stroke="#15131b" stroke-width="2" opacity=".6"/><rect x="62" y="107" width="8" height="12" fill="#F4C542" transform="rotate(63 190 12)"/><rect x="31" y="162" width="8" height="12" fill="#F4C542" transform="rotate(76 418 472)"/><rect x="705" y="185" width="8" height="12" fill="#F04E98" transform="rotate(49 625 262)"/><rect x="388" y="386" width="8" height="12" fill="#9BE84B" transform="rotate(75 763 101)"/><rect x="65" y="60" width="8" height="12" fill="#F04E98" transform="rotate(65 351 216)"/><rect x="737" y="278" width="8" height="12" fill="#9BE84B" transform="rotate(15 248 464)"/><rect x="134" y="407" width="8" height="12" fill="#F4C542" transform="rotate(51 461 385)"/><rect x="470" y="115" width="8" height="12" fill="#F4C542" transform="rotate(7 530 421)"/><rect x="231" y="348" width="8" height="12" fill="#3FD6E0" transform="rotate(1 144 81)"/><rect x="793" y="432" width="8" height="12" fill="#9BE84B" transform="rotate(60 39 151)"/><rect x="308" y="97" width="8" height="12" fill="#F04E98" transform="rotate(44 403 262)"/><rect x="262" y="180" width="8" height="12" fill="#3FD6E0" transform="rotate(86 690 309)"/><rect x="420" y="254" width="8" height="12" fill="#9BE84B" transform="rotate(35 464 185)"/><rect x="663" y="479" width="8" height="12" fill="#9BE84B" transform="rotate(54 657 323)"/><rect x="110" y="124" width="8" height="12" fill="#F04E98" transform="rotate(45 86 1)"/><rect x="684" y="83" width="8" height="12" fill="#F4C542" transform="rotate(70 333 113)"/><rect x="321" y="489" width="8" height="12" fill="#3FD6E0" transform="rotate(15 292 41)"/><rect x="571" y="490" width="8" height="12" fill="#9BE84B" transform="rotate(12 553 131)"/><rect x="544" y="183" width="8" height="12" fill="#F04E98" transform="rotate(74 28 483)"/><rect x="146" y="2" width="8" height="12" fill="#9BE84B" transform="rotate(61 613 189)"/><rect x="92" y="159" width="8" height="12" fill="#9BE84B" transform="rotate(21 354 225)"/><rect x="723" y="3" width="8" height="12" fill="#F4C542" transform="rotate(1 55 174)"/><rect x="582" y="60" width="8" height="12" fill="#9BE84B" transform="rotate(87 692 376)"/><rect x="60" y="295" width="8" height="12" fill="#9BE84B" transform="rotate(45 53 92)"/><rect x="790" y="488" width="8" height="12" fill="#9BE84B" transform="rotate(88 292 323)"/><rect x="279" y="308" width="8" height="12" fill="#F04E98" transform="rotate(56 292 11)"/><rect x="408" y="376" width="8" height="12" fill="#9BE84B" transform="rotate(10 545 319)"/><rect x="181" y="284" width="8" height="12" fill="#F04E98" transform="rotate(57 416 64)"/><rect x="220" y="103" width="8" height="12" fill="#9BE84B" transform="rotate(27 526 378)"/><rect x="672" y="19" width="8" height="12" fill="#3FD6E0" transform="rotate(87 649 135)"/><rect x="123" y="286" width="8" height="12" fill="#3FD6E0" transform="rotate(27 753 14)"/><rect x="296" y="390" width="8" height="12" fill="#9BE84B" transform="rotate(23 738 148)"/><rect x="796" y="344" width="8" height="12" fill="#F04E98" transform="rotate(63 122 24)"/><rect x="185" y="122" width="8" height="12" fill="#F04E98" transform="rotate(72 486 284)"/><rect x="59" y="491" width="8" height="12" fill="#F4C542" transform="rotate(34 714 182)"/><rect x="454" y="282" width="8" height="12" fill="#3FD6E0" transform="rotate(84 205 356)"/><rect x="723" y="74" width="8" height="12" fill="#F4C542" transform="rotate(31 84 174)"/><rect x="481" y="393" width="8" height="12" fill="#F04E98" transform="rotate(57 481 333)"/><rect x="460" y="8" width="8" height="12" fill="#F4C542" transform="rotate(25 184 441)"/><rect x="357" y="209" width="8" height="12" fill="#F04E98" transform="rotate(56 545 436)"/><rect x="557" y="40" width="8" height="12" fill="#F04E98" transform="rotate(31 333 337)"/><rect x="139" y="314" width="8" height="12" fill="#F04E98" transform="rotate(74 426 81)"/><rect x="632" y="409" width="8" height="12" fill="#9BE84B" transform="rotate(75 446 353)"/><rect x="142" y="205" width="8" height="12" fill="#3FD6E0" transform="rotate(89 149 318)"/><rect x="352" y="279" width="8" height="12" fill="#F04E98" transform="rotate(11 668 366)"/><rect x="214" y="60" width="8" height="12" fill="#9BE84B" transform="rotate(31 110 278)"/><rect x="536" y="179" width="8" height="12" fill="#3FD6E0" transform="rotate(64 177 232)"/><rect x="536" y="231" width="8" height="12" fill="#9BE84B" transform="rotate(26 626 172)"/><rect x="201" y="20" width="8" height="12" fill="#3FD6E0" transform="rotate(51 68 259)"/><rect x="559" y="224" width="8" height="12" fill="#9BE84B" transform="rotate(8 777 178)"/><rect x="639" y="383" width="8" height="12" fill="#9BE84B" transform="rotate(6 531 478)"/><rect x="562" y="225" width="8" height="12" fill="#F04E98" transform="rotate(85 761 383)"/><rect x="755" y="381" width="8" height="12" fill="#F4C542" transform="rotate(41 665 225)"/><rect x="674" y="387" width="8" height="12" fill="#F04E98" transform="rotate(27 550 459)"/><rect x="529" y="250" width="8" height="12" fill="#F04E98" transform="rotate(36 775 109)"/><rect x="35" y="24" width="8" height="12" fill="#F4C542" transform="rotate(7 52 474)"/><rect x="152" y="240" width="8" height="12" fill="#F04E98" transform="rotate(24 71 82)"/><rect x="155" y="117" width="8" height="12" fill="#3FD6E0" transform="rotate(33 166 6)"/><rect x="692" y="427" width="8" height="12" fill="#F4C542" transform="rotate(64 346 164)"/><rect x="156" y="220" width="8" height="12" fill="#3FD6E0" transform="rotate(61 355 270)"/><g transform="translate(380 300) scale(0.85 0.85)"><g transform="translate(0 0)"><path d="M-78 -86 C-120 -90 -128 -40 -150 -30" fill="none" stroke="#15131b" stroke-width="12" stroke-linecap="round"/><path d="M-78 -86 C-120 -90 -128 -40 -150 -30" fill="none" stroke="#c9c4d4" stroke-width="5" stroke-linecap="round"/></g><path d="M-66 -70 Q-62.0 -35.0 -74 0" fill="none" stroke="#15131b" stroke-width="15" stroke-linecap="round"/><path d="M-66 -70 Q-62.0 -35.0 -74 0" fill="none" stroke="#9d97ab" stroke-width="8" stroke-linecap="round"/><path d="M-46 -70 Q-40.0 -35.0 -50 0" fill="none" stroke="#15131b" stroke-width="15" stroke-linecap="round"/><path d="M-46 -70 Q-40.0 -35.0 -50 0" fill="none" stroke="#c9c4d4" stroke-width="8" stroke-linecap="round"/><path d="M44 -72 Q50.0 -36.0 40 0" fill="none" stroke="#15131b" stroke-width="15" stroke-linecap="round"/><path d="M44 -72 Q50.0 -36.0 40 0" fill="none" stroke="#9d97ab" stroke-width="8" stroke-linecap="round"/><path d="M60 -72 Q70.0 -36.0 64 0" fill="none" stroke="#15131b" stroke-width="15" stroke-linecap="round"/><path d="M60 -72 Q70.0 -36.0 64 0" fill="none" stroke="#c9c4d4" stroke-width="8" stroke-linecap="round"/><g transform="translate(0 0)"><path d="M-92 -96 C-96 -126 -40 -128 0 -118 C40 -112 70 -130 86 -108 C100 -86 90 -58 64 -56 C30 -54 10 -76 -20 -72 C-50 -68 -86 -66 -92 -96Z" fill="#c9c4d4" stroke="#15131b" stroke-width="6"/><path d="M20 -74 C40 -64 60 -58 72 -60" fill="none" stroke="#9d97ab" stroke-width="6" stroke-linecap="round"/><path d="M62 -112 C74 -140 88 -160 104 -168 L124 -150 C110 -138 100 -120 90 -100Z" fill="#c9c4d4" stroke="#15131b" stroke-width="6" stroke-linejoin="round"/><path d="M96 -170 C110 -186 150 -176 176 -160 C184 -154 180 -146 170 -146 C150 -146 134 -140 118 -138 C104 -140 94 -154 96 -170Z" fill="#c9c4d4" stroke="#15131b" stroke-width="6"/><circle cx="178" cy="-156" r="6" fill="#15131b"/><path d="M104 -172 C96 -196 80 -196 74 -182 C86 -182 96 -176 104 -166Z" fill="#9d97ab" stroke="#15131b" stroke-width="5" stroke-linejoin="round"/><circle cx="130" cy="-164" r="10" fill="#fff" stroke="#15131b" stroke-width="3"/><path d="M130 -164 m-6 0 a6 6 0 1 1 6 6 a4 4 0 1 1 -4 -4" fill="none" stroke="#15131b" stroke-width="2.5"/><path d="M80 -128 L110 -110" stroke="#15131b" stroke-width="16" stroke-linecap="round"/><path d="M80 -128 L110 -110" stroke="#F04E98" stroke-width="9" stroke-linecap="round"/></g><path d="M86 -170 L110 -236 L126 -164Z" fill="#F04E98" stroke="#15131b" stroke-width="4" stroke-linejoin="round"/><circle cx="110" cy="-238" r="8" fill="#F4C542" stroke="#15131b" stroke-width="3"/></g><path d="M520 120 q12 -14 24 0 q12 14 24 0" fill="none" stroke="#f7eecf" stroke-width="4"/><g transform="translate(240 505) scale(0.9 0.9)"><ellipse cx="0" cy="4" rx="56" ry="9" fill="#000" opacity=".3"/><path d="M-30 -60 Q-12 -190 -20 -200" fill="none" stroke="#15131b" stroke-width="15" stroke-linecap="round"/><path d="M-30 -60 Q-12 -190 -20 -200" fill="none" stroke="#9BE84B" stroke-width="8" stroke-linecap="round"/><circle cx="-20" cy="-200" r="9" fill="#9BE84B" stroke="#15131b" stroke-width="4"/><path d="M30 -60 Q18 -180 30 -190" fill="none" stroke="#15131b" stroke-width="15" stroke-linecap="round"/><path d="M30 -60 Q18 -180 30 -190" fill="none" stroke="#9BE84B" stroke-width="8" stroke-linecap="round"/><circle cx="30" cy="-190" r="9" fill="#9BE84B" stroke="#15131b" stroke-width="4"/><path d="M-48 0 C-58 -80 -38 -130 0 -132 C38 -130 58 -80 48 0Z" fill="#9BE84B" stroke="#15131b" stroke-width="6"/><circle cx="-17" cy="-90" r="10" fill="#fff" stroke="#15131b" stroke-width="4"/><circle cx="-14" cy="-90" r="4.5" fill="#15131b"/><circle cx="17" cy="-90" r="10" fill="#fff" stroke="#15131b" stroke-width="4"/><circle cx="20" cy="-90" r="4.5" fill="#15131b"/><path d="M-22 -60 Q0 -44 22 -60" fill="none" stroke="#15131b" stroke-width="5" stroke-linecap="round"/></g><g transform="translate(340 505) scale(0.9 0.9)"><ellipse cx="0" cy="4" rx="56" ry="9" fill="#000" opacity=".3"/><path d="M-30 -60 Q-12 -190 -20 -200" fill="none" stroke="#15131b" stroke-width="15" stroke-linecap="round"/><path d="M-30 -60 Q-12 -190 -20 -200" fill="none" stroke="#F04E98" stroke-width="8" stroke-linecap="round"/><circle cx="-20" cy="-200" r="9" fill="#F04E98" stroke="#15131b" stroke-width="4"/><path d="M30 -60 Q18 -180 30 -190" fill="none" stroke="#15131b" stroke-width="15" stroke-linecap="round"/><path d="M30 -60 Q18 -180 30 -190" fill="none" stroke="#F04E98" stroke-width="8" stroke-linecap="round"/><circle cx="30" cy="-190" r="9" fill="#F04E98" stroke="#15131b" stroke-width="4"/><path d="M-48 0 C-58 -80 -38 -130 0 -132 C38 -130 58 -80 48 0Z" fill="#F04E98" stroke="#15131b" stroke-width="6"/><circle cx="-22" cy="-86" r="10" fill="#fff" stroke="#15131b" stroke-width="4"/><circle cx="-19" cy="-86" r="4.5" fill="#15131b"/><circle cx="0" cy="-100" r="10" fill="#fff" stroke="#15131b" stroke-width="4"/><circle cx="3" cy="-100" r="4.5" fill="#15131b"/><circle cx="22" cy="-86" r="10" fill="#fff" stroke="#15131b" stroke-width="4"/><circle cx="25" cy="-86" r="4.5" fill="#15131b"/><path d="M-22 -60 Q0 -44 22 -60" fill="none" stroke="#15131b" stroke-width="5" stroke-linecap="round"/><path d="M-20 -124 L6 -192 L24 -126Z" fill="#F04E98" stroke="#15131b" stroke-width="4" stroke-linejoin="round"/><circle cx="6" cy="-194" r="7" fill="#F4C542" stroke="#15131b" stroke-width="3"/></g><g transform="translate(450 505) scale(0.9 0.9)"><ellipse cx="0" cy="4" rx="56" ry="9" fill="#000" opacity=".3"/><path d="M-30 -60 Q-12 -190 -20 -200" fill="none" stroke="#15131b" stroke-width="15" stroke-linecap="round"/><path d="M-30 -60 Q-12 -190 -20 -200" fill="none" stroke="#3FD6E0" stroke-width="8" stroke-linecap="round"/><circle cx="-20" cy="-200" r="9" fill="#3FD6E0" stroke="#15131b" stroke-width="4"/><path d="M30 -60 Q18 -180 30 -190" fill="none" stroke="#15131b" stroke-width="15" stroke-linecap="round"/><path d="M30 -60 Q18 -180 30 -190" fill="none" stroke="#3FD6E0" stroke-width="8" stroke-linecap="round"/><circle cx="30" cy="-190" r="9" fill="#3FD6E0" stroke="#15131b" stroke-width="4"/><path d="M-48 0 C-58 -80 -38 -130 0 -132 C38 -130 58 -80 48 0Z" fill="#3FD6E0" stroke="#15131b" stroke-width="6"/><circle cx="0" cy="-90" r="13" fill="#fff" stroke="#15131b" stroke-width="4"/><circle cx="3" cy="-90" r="6" fill="#15131b"/><path d="M-22 -60 Q0 -44 22 -60" fill="none" stroke="#15131b" stroke-width="5" stroke-linecap="round"/></g><g transform="translate(560 505) scale(0.9 0.9)"><ellipse cx="0" cy="4" rx="56" ry="9" fill="#000" opacity=".3"/><path d="M-30 -60 Q-12 -190 -20 -200" fill="none" stroke="#15131b" stroke-width="15" stroke-linecap="round"/><path d="M-30 -60 Q-12 -190 -20 -200" fill="none" stroke="#e8a060" stroke-width="8" stroke-linecap="round"/><circle cx="-20" cy="-200" r="9" fill="#e8a060" stroke="#15131b" stroke-width="4"/><path d="M30 -60 Q18 -180 30 -190" fill="none" stroke="#15131b" stroke-width="15" stroke-linecap="round"/><path d="M30 -60 Q18 -180 30 -190" fill="none" stroke="#e8a060" stroke-width="8" stroke-linecap="round"/><circle cx="30" cy="-190" r="9" fill="#e8a060" stroke="#15131b" stroke-width="4"/><path d="M-48 0 C-58 -80 -38 -130 0 -132 C38 -130 58 -80 48 0Z" fill="#e8a060" stroke="#15131b" stroke-width="6"/><circle cx="-17" cy="-90" r="10" fill="#fff" stroke="#15131b" stroke-width="4"/><circle cx="-14" cy="-90" r="4.5" fill="#15131b"/><circle cx="17" cy="-90" r="10" fill="#fff" stroke="#15131b" stroke-width="4"/><circle cx="20" cy="-90" r="4.5" fill="#15131b"/><path d="M-22 -60 Q0 -44 22 -60" fill="none" stroke="#15131b" stroke-width="5" stroke-linecap="round"/><path d="M-20 -124 L6 -192 L24 -126Z" fill="#F04E98" stroke="#15131b" stroke-width="4" stroke-linejoin="round"/><circle cx="6" cy="-194" r="7" fill="#F4C542" stroke="#15131b" stroke-width="3"/></g><rect x="620" y="170" width="160" height="120" fill="#0d0b16" stroke="#15131b" stroke-width="6"/><path d="M640 260 L660 230 L740 230 L760 260Z" fill="#F4C542" stroke="#15131b" stroke-width="4"/><circle cx="650" cy="264" r="8" fill="#fff"/><circle cx="750" cy="264" r="8" fill="#fff"/><rect width="800" height="500" filter="url(#grain)" opacity=".45"/><rect width="800" height="500" fill="url(#vig)"/></svg>