<svg xmlns="http://www.w3.org/2000/svg" width="800" height="500" viewBox="0 0 800 500" role="img" aria-label="An old hand"><defs><linearGradient id="vig" x1="0" y1="0" x2="0" y2="1"><stop offset="0" stop-color="#000" stop-opacity=".25"/><stop offset=".5" stop-color="#000" stop-opacity="0"/><stop offset="1" stop-color="#000" stop-opacity=".35"/></linearGradient><radialGradient id="rvig" cx=".5" cy=".5" r=".75"><stop offset=".55" stop-color="#000" stop-opacity="0"/><stop offset="1" stop-color="#000" stop-opacity=".5"/></radialGradient><radialGradient id="glow"><stop offset="0" stop-color="#fff" stop-opacity=".9"/><stop offset="1" stop-color="#fff" stop-opacity="0"/></radialGradient><pattern id="tape" width="16" height="16" patternUnits="userSpaceOnUse" patternTransform="rotate(45)"><rect width="16" height="16" fill="#F4C542"/><rect width="8" height="16" fill="#1B1A22"/></pattern><filter id="grain" x="0" y="0" width="100%" height="100%"><feTurbulence type="fractalNoise" baseFrequency="1.1" numOctaves="2" seed="19"/><feColorMatrix type="matrix" values="0 0 0 0 .08  0 0 0 0 .06  0 0 0 0 .05  0 0 0 -2.4 1.3"/></filter></defs><rect width="800" height="500" fill="#223028"/><line x1="0" y1="0" x2="0" y2="380" stroke="#1B1A22" stroke-width="5" opacity=".7"/><circle cx="8" cy="40" r="3" fill="#000" opacity=".25"/><circle cx="8" cy="160" r="3" fill="#000" opacity=".25"/><circle cx="8" cy="280" r="3" fill="#000" opacity=".25"/><line x1="100" y1="0" x2="100" y2="380" stroke="#1B1A22" stroke-width="5" opacity=".7"/><circle cx="108" cy="40" r="3" fill="#000" opacity=".25"/><circle cx="108" cy="160" r="3" fill="#000" opacity=".25"/><circle cx="108" cy="280" r="3" fill="#000" opacity=".25"/><line x1="200" y1="0" x2="200" y2="380" stroke="#1B1A22" stroke-width="5" opacity=".7"/><circle cx="208" cy="40" r="3" fill="#000" opacity=".25"/><circle cx="208" cy="160" r="3" fill="#000" opacity=".25"/><circle cx="208" cy="280" r="3" fill="#000" opacity=".25"/><line x1="300" y1="0" x2="300" y2="380" stroke="#1B1A22" stroke-width="5" opacity=".7"/><circle cx="308" cy="40" r="3" fill="#000" opacity=".25"/><circle cx="308" cy="160" r="3" fill="#000" opacity=".25"/><circle cx="308" cy="280" r="3" fill="#000" opacity=".25"/><line x1="400" y1="0" x2="400" y2="380" stroke="#1B1A22" stroke-width="5" opacity=".7"/><circle cx="408" cy="40" r="3" fill="#000" opacity=".25"/><circle cx="408" cy="160" r="3" fill="#000" opacity=".25"/><circle cx="408" cy="280" r="3" fill="#000" opacity=".25"/><line x1="500" y1="0" x2="500" y2="380" stroke="#1B1A22" stroke-width="5" opacity=".7"/><circle cx="508" cy="40" r="3" fill="#000" opacity=".25"/><circle cx="508" cy="160" r="3" fill="#000" opacity=".25"/><circle cx="508" cy="280" r="3" fill="#000" opacity=".25"/><line x1="600" y1="0" x2="600" y2="380" stroke="#1B1A22" stroke-width="5" opacity=".7"/><circle cx="608" cy="40" r="3" fill="#000" opacity=".25"/><circle cx="608" cy="160" r="3" fill="#000" opacity=".25"/><circle cx="608" cy="280" r="3" fill="#000" opacity=".25"/><line x1="700" y1="0" x2="700" y2="380" stroke="#1B1A22" stroke-width="5" opacity=".7"/><circle cx="708" cy="40" r="3" fill="#000" opacity=".25"/><circle cx="708" cy="160" r="3" fill="#000" opacity=".25"/><circle cx="708" cy="280" r="3" fill="#000" opacity=".25"/><rect x="-6" y="80" width="812" height="10" fill="#6B3A22" stroke="#15131b" stroke-width="4"/><g transform="translate(20 80) scale(0.9 0.9)"><path d="M-9 0 L-9 -34 Q-9 -42 -4 -46 L-4 -58 L4 -58 L4 -46 Q9 -42 9 -34 L9 0Z" fill="#b8653a" stroke="#15131b" stroke-width="3" stroke-linejoin="round"/><rect x="-7" y="-30" width="4" height="22" fill="#fff" opacity=".35"/></g><g transform="translate(55 80) scale(0.8 0.8)"><path d="M-9 0 L-9 -34 Q-9 -42 -4 -46 L-4 -58 L4 -58 L4 -46 Q9 -42 9 -34 L9 0Z" fill="#6fb4d8" stroke="#15131b" stroke-width="3" stroke-linejoin="round"/><rect x="-7" y="-30" width="4" height="22" fill="#fff" opacity=".35"/></g><g transform="translate(92 80) scale(0.7 0.7)"><path d="M-9 0 L-9 -34 Q-9 -42 -4 -46 L-4 -58 L4 -58 L4 -46 Q9 -42 9 -34 L9 0Z" fill="#6fb4d8" stroke="#15131b" stroke-width="3" stroke-linejoin="round"/><rect x="-7" y="-30" width="4" height="22" fill="#fff" opacity=".35"/></g><g transform="translate(122 80) scale(0.9 0.9)"><path d="M-9 0 L-9 -34 Q-9 -42 -4 -46 L-4 -58 L4 -58 L4 -46 Q9 -42 9 -34 L9 0Z" fill="#b8653a" stroke="#15131b" stroke-width="3" stroke-linejoin="round"/><rect x="-7" y="-30" width="4" height="22" fill="#fff" opacity=".35"/></g><g transform="translate(158 80) scale(0.8 0.8)"><path d="M-9 0 L-9 -34 Q-9 -42 -4 -46 L-4 -58 L4 -58 L4 -46 Q9 -42 9 -34 L9 0Z" fill="#F4C542" stroke="#15131b" stroke-width="3" stroke-linejoin="round"/><rect x="-7" y="-30" width="4" height="22" fill="#fff" opacity=".35"/></g><g transform="translate(188 80) scale(0.8 0.8)"><path d="M-9 0 L-9 -34 Q-9 -42 -4 -46 L-4 -58 L4 -58 L4 -46 Q9 -42 9 -34 L9 0Z" fill="#b8653a" stroke="#15131b" stroke-width="3" stroke-linejoin="round"/><rect x="-7" y="-30" width="4" height="22" fill="#fff" opacity=".35"/></g><g transform="translate(225 80) scale(0.9 0.9)"><path d="M-9 0 L-9 -34 Q-9 -42 -4 -46 L-4 -58 L4 -58 L4 -46 Q9 -42 9 -34 L9 0Z" fill="#6fb4d8" stroke="#15131b" stroke-width="3" stroke-linejoin="round"/><rect x="-7" y="-30" width="4" height="22" fill="#fff" opacity=".35"/></g><g transform="translate(253 80) scale(0.9 0.9)"><path d="M-9 0 L-9 -34 Q-9 -42 -4 -46 L-4 -58 L4 -58 L4 -46 Q9 -42 9 -34 L9 0Z" fill="#F4F4F4" stroke="#15131b" stroke-width="3" stroke-linejoin="round"/><rect x="-7" y="-30" width="4" height="22" fill="#fff" opacity=".35"/></g><g transform="translate(284 80) scale(0.8 0.8)"><path d="M-9 0 L-9 -34 Q-9 -42 -4 -46 L-4 -58 L4 -58 L4 -46 Q9 -42 9 -34 L9 0Z" fill="#b8653a" stroke="#15131b" stroke-width="3" stroke-linejoin="round"/><rect x="-7" y="-30" width="4" height="22" fill="#fff" opacity=".35"/></g><g transform="translate(321 80) scale(0.8 0.8)"><path d="M-9 0 L-9 -34 Q-9 -42 -4 -46 L-4 -58 L4 -58 L4 -46 Q9 -42 9 -34 L9 0Z" fill="#b8653a" stroke="#15131b" stroke-width="3" stroke-linejoin="round"/><rect x="-7" y="-30" width="4" height="22" fill="#fff" opacity=".35"/></g><g transform="translate(355 80) scale(0.8 0.8)"><path d="M-9 0 L-9 -34 Q-9 -42 -4 -46 L-4 -58 L4 -58 L4 -46 Q9 -42 9 -34 L9 0Z" fill="#6fb4d8" stroke="#15131b" stroke-width="3" stroke-linejoin="round"/><rect x="-7" y="-30" width="4" height="22" fill="#fff" opacity=".35"/></g><g transform="translate(385 80) scale(0.7 0.7)"><path d="M-9 0 L-9 -34 Q-9 -42 -4 -46 L-4 -58 L4 -58 L4 -46 Q9 -42 9 -34 L9 0Z" fill="#6fb4d8" stroke="#15131b" stroke-width="3" stroke-linejoin="round"/><rect x="-7" y="-30" width="4" height="22" fill="#fff" opacity=".35"/></g><g transform="translate(424 80) scale(0.9 0.9)"><path d="M-9 0 L-9 -34 Q-9 -42 -4 -46 L-4 -58 L4 -58 L4 -46 Q9 -42 9 -34 L9 0Z" fill="#F4F4F4" stroke="#15131b" stroke-width="3" stroke-linejoin="round"/><rect x="-7" y="-30" width="4" height="22" fill="#fff" opacity=".35"/></g><g transform="translate(462 80) scale(0.9 0.9)"><path d="M-9 0 L-9 -34 Q-9 -42 -4 -46 L-4 -58 L4 -58 L4 -46 Q9 -42 9 -34 L9 0Z" fill="#2E8B57" stroke="#15131b" stroke-width="3" stroke-linejoin="round"/><rect x="-7" y="-30" width="4" height="22" fill="#fff" opacity=".35"/></g><g transform="translate(496 80) scale(0.9 0.9)"><path d="M-9 0 L-9 -34 Q-9 -42 -4 -46 L-4 -58 L4 -58 L4 -46 Q9 -42 9 -34 L9 0Z" fill="#6fb4d8" stroke="#15131b" stroke-width="3" stroke-linejoin="round"/><rect x="-7" y="-30" width="4" height="22" fill="#fff" opacity=".35"/></g><g transform="translate(532 80) scale(0.8 0.8)"><path d="M-9 0 L-9 -34 Q-9 -42 -4 -46 L-4 -58 L4 -58 L4 -46 Q9 -42 9 -34 L9 0Z" fill="#b8653a" stroke="#15131b" stroke-width="3" stroke-linejoin="round"/><rect x="-7" y="-30" width="4" height="22" fill="#fff" opacity=".35"/></g><g transform="translate(559 80) scale(0.8 0.8)"><path d="M-9 0 L-9 -34 Q-9 -42 -4 -46 L-4 -58 L4 -58 L4 -46 Q9 -42 9 -34 L9 0Z" fill="#2E8B57" stroke="#15131b" stroke-width="3" stroke-linejoin="round"/><rect x="-7" y="-30" width="4" height="22" fill="#fff" opacity=".35"/></g><g transform="translate(590 80) scale(0.9 0.9)"><path d="M-9 0 L-9 -34 Q-9 -42 -4 -46 L-4 -58 L4 -58 L4 -46 Q9 -42 9 -34 L9 0Z" fill="#b8653a" stroke="#15131b" stroke-width="3" stroke-linejoin="round"/><rect x="-7" y="-30" width="4" height="22" fill="#fff" opacity=".35"/></g><g transform="translate(629 80) scale(0.8 0.8)"><path d="M-9 0 L-9 -34 Q-9 -42 -4 -46 L-4 -58 L4 -58 L4 -46 Q9 -42 9 -34 L9 0Z" fill="#b8653a" stroke="#15131b" stroke-width="3" stroke-linejoin="round"/><rect x="-7" y="-30" width="4" height="22" fill="#fff" opacity=".35"/></g><g transform="translate(661 80) scale(0.8 0.8)"><path d="M-9 0 L-9 -34 Q-9 -42 -4 -46 L-4 -58 L4 -58 L4 -46 Q9 -42 9 -34 L9 0Z" fill="#6fb4d8" stroke="#15131b" stroke-width="3" stroke-linejoin="round"/><rect x="-7" y="-30" width="4" height="22" fill="#fff" opacity=".35"/></g><g transform="translate(696 80) scale(0.9 0.9)"><path d="M-9 0 L-9 -34 Q-9 -42 -4 -46 L-4 -58 L4 -58 L4 -46 Q9 -42 9 -34 L9 0Z" fill="#6fb4d8" stroke="#15131b" stroke-width="3" stroke-linejoin="round"/><rect x="-7" y="-30" width="4" height="22" fill="#fff" opacity=".35"/></g><g transform="translate(730 80) scale(0.8 0.8)"><path d="M-9 0 L-9 -34 Q-9 -42 -4 -46 L-4 -58 L4 -58 L4 -46 Q9 -42 9 -34 L9 0Z" fill="#F4F4F4" stroke="#15131b" stroke-width="3" stroke-linejoin="round"/><rect x="-7" y="-30" width="4" height="22" fill="#fff" opacity=".35"/></g><g transform="translate(769 80) scale(0.7 0.7)"><path d="M-9 0 L-9 -34 Q-9 -42 -4 -46 L-4 -58 L4 -58 L4 -46 Q9 -42 9 -34 L9 0Z" fill="#6fb4d8" stroke="#15131b" stroke-width="3" stroke-linejoin="round"/><rect x="-7" y="-30" width="4" height="22" fill="#fff" opacity=".35"/></g><rect width="800" height="500" fill="#2E8B57" opacity=".06"/><path d="M-6 380 L806 380 L806 506 L-6 506Z" fill="#3a3024" stroke="#15131b" stroke-width="6" stroke-linejoin="round"/><line x1="70" y1="380" x2="-293" y2="500" stroke="#000" stroke-width="3" opacity=".18"/><line x1="108.5" y1="380" x2="-212.1" y2="500" stroke="#000" stroke-width="3" opacity=".18"/><line x1="147" y1="380" x2="-131.3" y2="500" stroke="#000" stroke-width="3" opacity=".18"/><line x1="185.5" y1="380" x2="-50.5" y2="500" stroke="#000" stroke-width="3" opacity=".18"/><line x1="224" y1="380" x2="30.4" y2="500" stroke="#000" stroke-width="3" opacity=".18"/><line x1="262.5" y1="380" x2="111.2" y2="500" stroke="#000" stroke-width="3" opacity=".18"/><line x1="301" y1="380" x2="192.1" y2="500" stroke="#000" stroke-width="3" opacity=".18"/><line x1="339.5" y1="380" x2="272.9" y2="500" stroke="#000" stroke-width="3" opacity=".18"/><line x1="378" y1="380" x2="353.8" y2="500" stroke="#000" stroke-width="3" opacity=".18"/><line x1="416.5" y1="380" x2="434.6" y2="500" stroke="#000" stroke-width="3" opacity=".18"/><line x1="455" y1="380" x2="515.5" y2="500" stroke="#000" stroke-width="3" opacity=".18"/><line x1="493.5" y1="380" x2="596.4" y2="500" stroke="#000" stroke-width="3" opacity=".18"/><line x1="532" y1="380" x2="677.2" y2="500" stroke="#000" stroke-width="3" opacity=".18"/><line x1="570.5" y1="380" x2="758" y2="500" stroke="#000" stroke-width="3" opacity=".18"/><line x1="609" y1="380" x2="838.9" y2="500" stroke="#000" stroke-width="3" opacity=".18"/><line x1="647.5" y1="380" x2="919.8" y2="500" stroke="#000" stroke-width="3" opacity=".18"/><line x1="686" y1="380" x2="1000.6" y2="500" stroke="#000" stroke-width="3" opacity=".18"/><line x1="724.5" y1="380" x2="1081.5" y2="500" stroke="#000" stroke-width="3" opacity=".18"/><line x1="763" y1="380" x2="1162.3" y2="500" stroke="#000" stroke-width="3" opacity=".18"/><path d="M560 0 L560 100" stroke="#15131b" stroke-width="5"/><path d="M530 120 L590 120 L578 100 L542 100Z" fill="#ffd890" stroke="#15131b" stroke-width="5" stroke-linejoin="round"/><path d="M532 120 L588 120 L710.0 380 L410.0 380Z" fill="#ffd890" opacity="0.18"/><path d="M486 330 C480 262 510 236 560 234 C610 236 640 262 634 330Z" fill="#101410" stroke="#15131b" stroke-width="6" stroke-linejoin="round"/><circle cx="560" cy="206" r="34" fill="#101410" stroke="#15131b" stroke-width="6"/><path d="M522 196 Q560 150 598 196 L622 202 Q560 188 510 204Z" fill="#101410" stroke="#15131b" stroke-width="5" stroke-linejoin="round"/><ellipse cx="560" cy="336" rx="150" ry="30" fill="#5a3a22" stroke="#15131b" stroke-width="6"/><rect x="546" y="360" width="28" height="120" fill="#3a2414" stroke="#15131b" stroke-width="5"/><ellipse cx="560" cy="332" rx="150" ry="30" fill="#7a4a2a" stroke="#15131b" stroke-width="6"/><g transform="translate(480 330) scale(1.1 1.1)"><path d="M-14 -34 L14 -34 C14 -14 6 -10 3 -8 L3 0 L10 4 L-10 4 L-3 0 L-3 -8 C-6 -10 -14 -14 -14 -34Z" fill="#C9A227" stroke="#15131b" stroke-width="3" stroke-linejoin="round"/></g><g transform="translate(520 330) scale(1 1)"><path d="M-14 -34 L14 -34 C14 -14 6 -10 3 -8 L3 0 L10 4 L-10 4 L-3 0 L-3 -8 C-6 -10 -14 -14 -14 -34Z" fill="#C9A227" stroke="#15131b" stroke-width="3" stroke-linejoin="round"/></g><g transform="translate(620 330) scale(1.2 1.2)"><path d="M-14 -34 L14 -34 C14 -14 6 -10 3 -8 L3 0 L10 4 L-10 4 L-3 0 L-3 -8 C-6 -10 -14 -14 -14 -34Z" fill="#C9A227" stroke="#15131b" stroke-width="3" stroke-linejoin="round"/></g><g transform="translate(590 330) scale(0.9 0.9)"><path d="M-12 0 L-14 -22 L14 -22 L12 0Z" fill="#c8a060" stroke="#15131b" stroke-width="0" stroke-linejoin="round" opacity=".85"/><path d="M-12 0 L-15 -34 L15 -34 L12 0Z" fill="#9fd8ff" stroke="#15131b" stroke-width="3" stroke-linejoin="round" fill-opacity=".3"/></g><g transform="translate(170 480) scale(1.7 1.7)"><ellipse cx="0" cy="4" rx="56" ry="9" fill="#000" opacity=".3"/><path d="M30 -60 Q90 -80 150 -90" fill="none" stroke="#15131b" stroke-width="15" stroke-linecap="round" stroke-linejoin="round"/><path d="M30 -60 Q90 -80 150 -90" fill="none" stroke="#d8a0c0" stroke-width="8" stroke-linecap="round" stroke-linejoin="round"/><circle cx="150" cy="-90" r="9" fill="#d8a0c0" stroke="#15131b" stroke-width="4"/><path d="M-48.0 0 C-58.0 -80.0 -38.0 -130.0 0 -132.0 C38.0 -130.0 58.0 -80.0 48.0 0Z" fill="#d8a0c0" stroke="#15131b" stroke-width="6" stroke-linejoin="round"/><path d="M-48.0 0 C-58.0 -80.0 -38.0 -130.0 0 -132.0 C38.0 -130.0 58.0 -80.0 48.0 0Z" fill="#000" opacity=".12" transform="translate(12.0 0) scale(.75 1)" /><circle cx="-17" cy="-90" r="10" fill="#fff" stroke="#15131b" stroke-width="4"/><circle cx="-12" cy="-90" r="4.5" fill="#15131b"/><circle cx="17" cy="-90" r="10" fill="#fff" stroke="#15131b" stroke-width="4"/><circle cx="22" cy="-90" r="4.5" fill="#15131b"/><path d="M-30.0 -106.0 q10 -8 20 0 M10.0 -106.0 q10 -8 20 0" stroke="#15131b" stroke-width="4" fill="none"/><path d="M-22 -60 Q0 -44 22 -60" transform="translate(0 0)" fill="none" stroke="#15131b" stroke-width="5" stroke-linecap="round"/><ellipse cx="-26" cy="-72" rx="9" ry="5" fill="#F04E98" opacity=".5"/><ellipse cx="26" cy="-72" rx="9" ry="5" fill="#F04E98" opacity=".5"/><path d="M-30 -54 L30 -54 L36 2 L-36 2Z" fill="#f4f4f4" stroke="#15131b" stroke-width="4" stroke-linejoin="round"/><line x1="-30" y1="-54" x2="-40" y2="-70" stroke="#15131b" stroke-width="3" stroke-linecap="round"/><line x1="30" y1="-54" x2="40" y2="-70" stroke="#15131b" stroke-width="3" stroke-linecap="round"/></g><g transform="translate(360 150) scale(1 1)"><path d="M0 0 C40 -30 90 -20 120 20" stroke="#F4F4F4" stroke-width="4" stroke-dasharray="8 8" fill="none"/><path d="M120 20 l-4 -18 l-12 12Z" fill="#F4F4F4" stroke="#15131b" stroke-width="2" stroke-linejoin="round"/></g><rect width="800" height="500" filter="url(#grain)" opacity=".45"/><rect width="800" height="500" fill="url(#vig)"/><rect width="800" height="500" fill="url(#rvig)"/></svg>