<svg xmlns="http://www.w3.org/2000/svg" width="800" height="500" viewBox="0 0 800 500" role="img" aria-label="A vet who owes somebody a favour"><defs><linearGradient id="vig" x1="0" y1="0" x2="0" y2="1"><stop offset="0" stop-color="#000" stop-opacity=".25"/><stop offset=".5" stop-color="#000" stop-opacity="0"/><stop offset="1" stop-color="#000" stop-opacity=".35"/></linearGradient><radialGradient id="rvig" cx=".5" cy=".5" r=".75"><stop offset=".55" stop-color="#000" stop-opacity="0"/><stop offset="1" stop-color="#000" stop-opacity=".5"/></radialGradient><radialGradient id="glow"><stop offset="0" stop-color="#fff" stop-opacity=".9"/><stop offset="1" stop-color="#fff" stop-opacity="0"/></radialGradient><pattern id="tape" width="16" height="16" patternUnits="userSpaceOnUse" patternTransform="rotate(45)"><rect width="16" height="16" fill="#F4C542"/><rect width="8" height="16" fill="#1B1A22"/></pattern><filter id="grain" x="0" y="0" width="100%" height="100%"><feTurbulence type="fractalNoise" baseFrequency="1.1" numOctaves="2" seed="3"/><feColorMatrix type="matrix" values="0 0 0 0 .08  0 0 0 0 .06  0 0 0 0 .05  0 0 0 -2.4 1.3"/></filter></defs><rect width="800" height="500" fill="#2a3330"/><line x1="0" y1="0" x2="0" y2="500" stroke="#000" stroke-width="4" stroke-linecap="round" opacity=".2"/><line x1="100" y1="0" x2="100" y2="500" stroke="#000" stroke-width="4" stroke-linecap="round" opacity=".2"/><line x1="200" y1="0" x2="200" y2="500" stroke="#000" stroke-width="4" stroke-linecap="round" opacity=".2"/><line x1="300" y1="0" x2="300" y2="500" stroke="#000" stroke-width="4" stroke-linecap="round" opacity=".2"/><line x1="400" y1="0" x2="400" y2="500" stroke="#000" stroke-width="4" stroke-linecap="round" opacity=".2"/><line x1="500" y1="0" x2="500" y2="500" stroke="#000" stroke-width="4" stroke-linecap="round" opacity=".2"/><line x1="600" y1="0" x2="600" y2="500" stroke="#000" stroke-width="4" stroke-linecap="round" opacity=".2"/><line x1="700" y1="0" x2="700" y2="500" stroke="#000" stroke-width="4" stroke-linecap="round" opacity=".2"/><rect x="10" y="36" width="180" height="294" fill="#1a1c1e" stroke="#15131b" stroke-width="6"/><circle cx="86" cy="250" r="4" fill="#F4C542"/><circle cx="102" cy="250" r="4" fill="#F4C542"/><line x1="32.5" y1="36" x2="32.5" y2="330" stroke="#9aa3aa" stroke-width="4" stroke-linecap="round"/><line x1="55" y1="36" x2="55" y2="330" stroke="#9aa3aa" stroke-width="4" stroke-linecap="round"/><line x1="77.5" y1="36" x2="77.5" y2="330" stroke="#9aa3aa" stroke-width="4" stroke-linecap="round"/><line x1="100" y1="36" x2="100" y2="330" stroke="#9aa3aa" stroke-width="4" stroke-linecap="round"/><line x1="122.5" y1="36" x2="122.5" y2="330" stroke="#9aa3aa" stroke-width="4" stroke-linecap="round"/><line x1="145" y1="36" x2="145" y2="330" stroke="#9aa3aa" stroke-width="4" stroke-linecap="round"/><line x1="167.5" y1="36" x2="167.5" y2="330" stroke="#9aa3aa" stroke-width="4" stroke-linecap="round"/><rect x="10" y="36" width="180" height="12" fill="#9aa3aa" stroke="#15131b" stroke-width="4"/><rect x="10" y="318" width="180" height="12" fill="#9aa3aa" stroke="#15131b" stroke-width="4"/><rect x="84" y="60" width="32" height="18" fill="#f7eecf" stroke="#15131b" stroke-width="3"/><g transform="translate(100 69) scale(0.5 0.5)"><g fill="#15131b" opacity="1"><ellipse cx="0" cy="6" rx="12" ry="10"/><circle cx="-13" cy="-8" r="5"/><circle cx="-4" cy="-14" r="5"/><circle cx="6" cy="-14" r="5"/><circle cx="14" cy="-7" r="5"/></g></g><rect x="210" y="36" width="180" height="294" fill="#1a1c1e" stroke="#15131b" stroke-width="6"/><line x1="232.5" y1="36" x2="232.5" y2="330" stroke="#9aa3aa" stroke-width="4" stroke-linecap="round"/><line x1="255" y1="36" x2="255" y2="330" stroke="#9aa3aa" stroke-width="4" stroke-linecap="round"/><line x1="277.5" y1="36" x2="277.5" y2="330" stroke="#9aa3aa" stroke-width="4" stroke-linecap="round"/><line x1="300" y1="36" x2="300" y2="330" stroke="#9aa3aa" stroke-width="4" stroke-linecap="round"/><line x1="322.5" y1="36" x2="322.5" y2="330" stroke="#9aa3aa" stroke-width="4" stroke-linecap="round"/><line x1="345" y1="36" x2="345" y2="330" stroke="#9aa3aa" stroke-width="4" stroke-linecap="round"/><line x1="367.5" y1="36" x2="367.5" y2="330" stroke="#9aa3aa" stroke-width="4" stroke-linecap="round"/><rect x="210" y="36" width="180" height="12" fill="#9aa3aa" stroke="#15131b" stroke-width="4"/><rect x="210" y="318" width="180" height="12" fill="#9aa3aa" stroke="#15131b" stroke-width="4"/><rect x="284" y="60" width="32" height="18" fill="#f7eecf" stroke="#15131b" stroke-width="3"/><g transform="translate(300 69) scale(0.5 0.5)"><g fill="#15131b" opacity="1"><ellipse cx="0" cy="6" rx="12" ry="10"/><circle cx="-13" cy="-8" r="5"/><circle cx="-4" cy="-14" r="5"/><circle cx="6" cy="-14" r="5"/><circle cx="14" cy="-7" r="5"/></g></g><rect x="410" y="36" width="180" height="294" fill="#1a1c1e" stroke="#15131b" stroke-width="6"/><g transform="translate(478 320) scale(0.7 0.7)"><path d="M-30 10 C-24 -20 -10 -44 8 -54 L30 -36 C16 -24 8 0 4 12Z" fill="#6a5a48" stroke="#15131b" stroke-width="6" stroke-linejoin="round"/><path d="M0 -56 C14 -72 54 -62 80 -46 C88 -40 84 -32 74 -32 C54 -32 38 -26 22 -24 C8 -26 -2 -40 0 -56Z" fill="#6a5a48" stroke="#15131b" stroke-width="6" stroke-linejoin="round"/><circle cx="82" cy="-42" r="6" fill="#15131b"/><path d="M8 -58 C0 -82 -16 -82 -22 -68 C-10 -68 0 -62 8 -52Z" fill="#5a4a3a" stroke="#15131b" stroke-width="5" stroke-linejoin="round"/><path d="M24 -47 Q34 -59 44 -47" fill="none" stroke="#15131b" stroke-width="4" stroke-linecap="round"/><path d="M-22 -10 L14 4" fill="none" stroke="#15131b" stroke-width="16" stroke-linecap="round" stroke-linejoin="round"/><path d="M-22 -10 L14 4" fill="none" stroke="#8a8f98" stroke-width="9" stroke-linecap="round" stroke-linejoin="round"/></g><line x1="432.5" y1="36" x2="432.5" y2="330" stroke="#9aa3aa" stroke-width="4" stroke-linecap="round"/><line x1="455" y1="36" x2="455" y2="330" stroke="#9aa3aa" stroke-width="4" stroke-linecap="round"/><line x1="477.5" y1="36" x2="477.5" y2="330" stroke="#9aa3aa" stroke-width="4" stroke-linecap="round"/><line x1="500" y1="36" x2="500" y2="330" stroke="#9aa3aa" stroke-width="4" stroke-linecap="round"/><line x1="522.5" y1="36" x2="522.5" y2="330" stroke="#9aa3aa" stroke-width="4" stroke-linecap="round"/><line x1="545" y1="36" x2="545" y2="330" stroke="#9aa3aa" stroke-width="4" stroke-linecap="round"/><line x1="567.5" y1="36" x2="567.5" y2="330" stroke="#9aa3aa" stroke-width="4" stroke-linecap="round"/><rect x="410" y="36" width="180" height="12" fill="#9aa3aa" stroke="#15131b" stroke-width="4"/><rect x="410" y="318" width="180" height="12" fill="#9aa3aa" stroke="#15131b" stroke-width="4"/><rect x="484" y="60" width="32" height="18" fill="#f7eecf" stroke="#15131b" stroke-width="3"/><g transform="translate(500 69) scale(0.5 0.5)"><g fill="#15131b" opacity="1"><ellipse cx="0" cy="6" rx="12" ry="10"/><circle cx="-13" cy="-8" r="5"/><circle cx="-4" cy="-14" r="5"/><circle cx="6" cy="-14" r="5"/><circle cx="14" cy="-7" r="5"/></g></g><rect x="610" y="36" width="180" height="294" fill="#1a1c1e" stroke="#15131b" stroke-width="6"/><g transform="translate(660 320) scale(-0.7 0.7)"><path d="M-30 10 C-24 -20 -10 -44 8 -54 L30 -36 C16 -24 8 0 4 12Z" fill="#c9c4d4" stroke="#15131b" stroke-width="6" stroke-linejoin="round"/><path d="M0 -56 C14 -72 54 -62 80 -46 C88 -40 84 -32 74 -32 C54 -32 38 -26 22 -24 C8 -26 -2 -40 0 -56Z" fill="#c9c4d4" stroke="#15131b" stroke-width="6" stroke-linejoin="round"/><circle cx="82" cy="-42" r="6" fill="#15131b"/><path d="M8 -58 C0 -82 -16 -82 -22 -68 C-10 -68 0 -62 8 -52Z" fill="#5a4a3a" stroke="#15131b" stroke-width="5" stroke-linejoin="round"/><circle cx="34" cy="-48" r="9" fill="#fff" stroke="#15131b" stroke-width="3"/><circle cx="36" cy="-46" r="4" fill="#15131b"/><line x1="23" y1="-57" x2="45" y2="-54" stroke="#15131b" stroke-width="5" stroke-linecap="round"/><path d="M-22 -10 L14 4" fill="none" stroke="#15131b" stroke-width="16" stroke-linecap="round" stroke-linejoin="round"/><path d="M-22 -10 L14 4" fill="none" stroke="#8a8f98" stroke-width="9" stroke-linecap="round" stroke-linejoin="round"/></g><line x1="632.5" y1="36" x2="632.5" y2="330" stroke="#9aa3aa" stroke-width="4" stroke-linecap="round"/><line x1="655" y1="36" x2="655" y2="330" stroke="#9aa3aa" stroke-width="4" stroke-linecap="round"/><line x1="677.5" y1="36" x2="677.5" y2="330" stroke="#9aa3aa" stroke-width="4" stroke-linecap="round"/><line x1="700" y1="36" x2="700" y2="330" stroke="#9aa3aa" stroke-width="4" stroke-linecap="round"/><line x1="722.5" y1="36" x2="722.5" y2="330" stroke="#9aa3aa" stroke-width="4" stroke-linecap="round"/><line x1="745" y1="36" x2="745" y2="330" stroke="#9aa3aa" stroke-width="4" stroke-linecap="round"/><line x1="767.5" y1="36" x2="767.5" y2="330" stroke="#9aa3aa" stroke-width="4" stroke-linecap="round"/><rect x="610" y="36" width="180" height="12" fill="#9aa3aa" stroke="#15131b" stroke-width="4"/><rect x="610" y="318" width="180" height="12" fill="#9aa3aa" stroke="#15131b" stroke-width="4"/><rect x="684" y="60" width="32" height="18" fill="#f7eecf" stroke="#15131b" stroke-width="3"/><g transform="translate(700 69) scale(0.5 0.5)"><g fill="#15131b" opacity="1"><ellipse cx="0" cy="6" rx="12" ry="10"/><circle cx="-13" cy="-8" r="5"/><circle cx="-4" cy="-14" r="5"/><circle cx="6" cy="-14" r="5"/><circle cx="14" cy="-7" r="5"/></g></g><path d="M-6 330 L806 330 L806 506 L-6 506Z" fill="#4a4a44" stroke="#15131b" stroke-width="6" stroke-linejoin="round"/><line x1="80" y1="334" x2="20" y2="500" stroke="#000" stroke-width="3" stroke-linecap="round" opacity=".15"/><line x1="200" y1="334" x2="140" y2="500" stroke="#000" stroke-width="3" stroke-linecap="round" opacity=".15"/><line x1="320" y1="334" x2="260" y2="500" stroke="#000" stroke-width="3" stroke-linecap="round" opacity=".15"/><line x1="440" y1="334" x2="380" y2="500" stroke="#000" stroke-width="3" stroke-linecap="round" opacity=".15"/><line x1="560" y1="334" x2="500" y2="500" stroke="#000" stroke-width="3" stroke-linecap="round" opacity=".15"/><line x1="680" y1="334" x2="620" y2="500" stroke="#000" stroke-width="3" stroke-linecap="round" opacity=".15"/><line x1="800" y1="334" x2="740" y2="500" stroke="#000" stroke-width="3" stroke-linecap="round" opacity=".15"/><ellipse cx="620" cy="460" rx="90" ry="10" fill="#6a7a88" opacity=".35"/><rect width="800" height="500" fill="#9BE84B" opacity=".06"/><rect x="230" y="300" width="300" height="20" fill="#aab2b8" stroke="#15131b" stroke-width="5"/><path d="M260 320 L250 470" fill="none" stroke="#15131b" stroke-width="12" stroke-linecap="round" stroke-linejoin="round"/><path d="M260 320 L250 470" fill="none" stroke="#8a8f98" stroke-width="6" stroke-linecap="round" stroke-linejoin="round"/><path d="M500 320 L510 470" fill="none" stroke="#15131b" stroke-width="12" stroke-linecap="round" stroke-linejoin="round"/><path d="M500 320 L510 470" fill="none" stroke="#8a8f98" stroke-width="6" stroke-linecap="round" stroke-linejoin="round"/><g transform="translate(360 300) scale(0.9 0.9)"><path d="M-40 -10 C-80 -6 -100 0 -120 -10" fill="none" stroke="#15131b" stroke-width="12" stroke-linecap="round" stroke-linejoin="round"/><path d="M-40 -10 C-80 -6 -100 0 -120 -10" fill="none" stroke="#c9c4d4" stroke-width="5" stroke-linecap="round" stroke-linejoin="round"/><path d="M-10 -20 Q-30 -10 -44 0 L-4 0" fill="none" stroke="#15131b" stroke-width="15" stroke-linecap="round" stroke-linejoin="round"/><path d="M-10 -20 Q-30 -10 -44 0 L-4 0" fill="none" stroke="#9d97ab" stroke-width="8" stroke-linecap="round" stroke-linejoin="round"/><path d="M-50 -10 C-60 -60 -30 -110 10 -130 C30 -138 50 -120 46 -96 C40 -60 30 -30 36 -10 C20 0 -30 4 -50 -10Z" fill="#c9c4d4" stroke="#15131b" stroke-width="6" stroke-linejoin="round"/><path d="M30 -80 Q36 -40 34 0" fill="none" stroke="#15131b" stroke-width="15" stroke-linecap="round" stroke-linejoin="round"/><path d="M30 -80 Q36 -40 34 0" fill="none" stroke="#c9c4d4" stroke-width="8" stroke-linecap="round" stroke-linejoin="round"/><path d="M14 -80 Q18 -40 16 0" fill="none" stroke="#15131b" stroke-width="15" stroke-linecap="round" stroke-linejoin="round"/><path d="M14 -80 Q18 -40 16 0" fill="none" stroke="#9d97ab" stroke-width="8" stroke-linecap="round" stroke-linejoin="round"/><g transform="translate(10 -110) scale(1 1)"><path d="M-30 10 C-24 -20 -10 -44 8 -54 L30 -36 C16 -24 8 0 4 12Z" fill="#c9c4d4" stroke="#15131b" stroke-width="6" stroke-linejoin="round"/><path d="M0 -56 C14 -72 54 -62 80 -46 C88 -40 84 -32 74 -32 C54 -32 38 -26 22 -24 C8 -26 -2 -40 0 -56Z" fill="#c9c4d4" stroke="#15131b" stroke-width="6" stroke-linejoin="round"/><circle cx="82" cy="-42" r="6" fill="#15131b"/><path d="M8 -56 C-6 -62 -26 -56 -34 -46 C-20 -50 -4 -50 8 -50Z" fill="#9d97ab" stroke="#15131b" stroke-width="5" stroke-linejoin="round"/><circle cx="34" cy="-48" r="9" fill="#fff" stroke="#15131b" stroke-width="3"/><circle cx="36" cy="-46" r="4" fill="#15131b"/><line x1="23" y1="-57" x2="45" y2="-54" stroke="#15131b" stroke-width="5" stroke-linecap="round"/><path d="M-22 -10 L14 4" fill="none" stroke="#15131b" stroke-width="16" stroke-linecap="round" stroke-linejoin="round"/><path d="M-22 -10 L14 4" fill="none" stroke="#F04E98" stroke-width="9" stroke-linecap="round" stroke-linejoin="round"/></g></g><g transform="translate(410 290) scale(1 1)"><rect x="-8" y="-40" width="16" height="44" fill="#fff" stroke="#15131b" stroke-width="3"/><line x1="-6" y1="-26" x2="6" y2="-26" stroke="#e03a3a" stroke-width="3" stroke-linecap="round"/></g><g transform="translate(620 470) scale(1.6 1.6)"><ellipse cx="0" cy="4" rx="56" ry="9" fill="#000" opacity=".3"/><path d="M-30 -60 Q-60 -60 -70 -90" fill="none" stroke="#15131b" stroke-width="15" stroke-linecap="round" stroke-linejoin="round"/><path d="M-30 -60 Q-60 -60 -70 -90" fill="none" stroke="#8fb8e0" stroke-width="8" stroke-linecap="round" stroke-linejoin="round"/><circle cx="-70" cy="-90" r="9" fill="#8fb8e0" stroke="#15131b" stroke-width="4"/><g transform="translate(-70 -90) rotate(-10) scale(1 1)"><rect x="-22" y="-30" width="44" height="56" fill="#f7eecf" stroke="#15131b" stroke-width="3"/><rect x="-10" y="-34" width="20" height="8" fill="#8a8f98" stroke="#15131b" stroke-width="2"/><path d="M-14 -16 q3 -5 6 0 q3 5 6 0 q3 -5 6 0 q3 5 6 0 q3 -5 6 0 q3 5 6 0" fill="none" stroke="#4a4050" stroke-width="2" stroke-linecap="round"/><path d="M-14 -4 q3 -5 6 0 q3 5 6 0 q3 -5 6 0 q3 5 6 0 q3 -5 6 0 q3 5 6 0" fill="none" stroke="#4a4050" stroke-width="2" stroke-linecap="round"/><path d="M-14 8 q3 -5 6 0 q3 5 6 0 q3 -5 6 0 q3 5 6 0" fill="none" stroke="#4a4050" stroke-width="2" stroke-linecap="round"/></g><path d="M-48.0 0 C-58.0 -80.0 -38.0 -130.0 0 -132.0 C38.0 -130.0 58.0 -80.0 48.0 0Z" fill="#8fb8e0" stroke="#15131b" stroke-width="6" stroke-linejoin="round"/><path d="M-48.0 0 C-58.0 -80.0 -38.0 -130.0 0 -132.0 C38.0 -130.0 58.0 -80.0 48.0 0Z" fill="#000" opacity=".12" transform="translate(12.0 0) scale(.75 1)" /><circle cx="-17" cy="-90" r="10" fill="#fff" stroke="#15131b" stroke-width="4"/><circle cx="-22" cy="-90" r="4.5" fill="#15131b"/><circle cx="17" cy="-90" r="10" fill="#fff" stroke="#15131b" stroke-width="4"/><circle cx="12" cy="-90" r="4.5" fill="#15131b"/><path d="M-30.0 -106.0 q10 -8 20 0 M10.0 -106.0 q10 -8 20 0" stroke="#15131b" stroke-width="4" fill="none"/><path d="M-22 -60 Q0 -44 22 -60" transform="translate(0 0)" fill="none" stroke="#15131b" stroke-width="5" stroke-linecap="round"/><ellipse cx="-26" cy="-72" rx="9" ry="5" fill="#F04E98" opacity=".5"/><ellipse cx="26" cy="-72" rx="9" ry="5" fill="#F04E98" opacity=".5"/><path d="M-42 -116.0 C-44 -148.0 44 -148.0 42 -116.0Z" fill="#7fd0c0" stroke="#15131b" stroke-width="5" stroke-linejoin="round"/><path d="M-46 -50 L46 -50 L52 2 L-52 2Z" fill="#e8f0f0" stroke="#15131b" stroke-width="4" stroke-linejoin="round"/><rect x="-10" y="-38" width="20" height="20" fill="#fff" stroke="#15131b" stroke-width="2"/><rect x="-3" y="-35" width="6" height="14" fill="#e03a3a" stroke="#15131b" stroke-width="0"/><rect x="-7" y="-31" width="14" height="6" fill="#e03a3a" stroke="#15131b" stroke-width="0"/></g><g transform="translate(130 470) scale(1 1)"><ellipse cx="0" cy="0" rx="24" ry="8" fill="#F4C542" stroke="#15131b" stroke-width="4"/><ellipse cx="0" cy="-9" rx="24" ry="8" fill="#F4C542" stroke="#15131b" stroke-width="4"/><ellipse cx="0" cy="-18" rx="24" ry="8" fill="#F4C542" stroke="#15131b" stroke-width="4"/><ellipse cx="0" cy="-27" rx="24" ry="8" fill="#F4C542" stroke="#15131b" stroke-width="4"/><g transform="translate(0 -27) scale(0.5 0.5)"><g fill="#b8892a"><circle cx="-16" cy="-5" r="6"/><circle cx="-16" cy="5" r="6"/><circle cx="16" cy="-5" r="6"/><circle cx="16" cy="5" r="6"/></g><rect x="-17" y="-5" width="34" height="10" fill="#b8892a"/></g></g><g transform="translate(180 474) scale(1 1)"><ellipse cx="0" cy="0" rx="24" ry="8" fill="#F4C542" stroke="#15131b" stroke-width="4"/><ellipse cx="0" cy="-9" rx="24" ry="8" fill="#F4C542" stroke="#15131b" stroke-width="4"/><ellipse cx="0" cy="-18" rx="24" ry="8" fill="#F4C542" stroke="#15131b" stroke-width="4"/><ellipse cx="0" cy="-27" rx="24" ry="8" fill="#F4C542" stroke="#15131b" stroke-width="4"/><ellipse cx="0" cy="-36" rx="24" ry="8" fill="#F4C542" stroke="#15131b" stroke-width="4"/><ellipse cx="0" cy="-45" rx="24" ry="8" fill="#F4C542" stroke="#15131b" stroke-width="4"/><g transform="translate(0 -45) scale(0.5 0.5)"><g fill="#b8892a"><circle cx="-16" cy="-5" r="6"/><circle cx="-16" cy="5" r="6"/><circle cx="16" cy="-5" r="6"/><circle cx="16" cy="5" r="6"/></g><rect x="-17" y="-5" width="34" height="10" fill="#b8892a"/></g></g><rect width="800" height="500" filter="url(#grain)" opacity=".45"/><rect width="800" height="500" fill="url(#vig)"/><rect width="800" height="500" fill="url(#rvig)"/></svg>