<svg xmlns="http://www.w3.org/2000/svg" width="600" height="800" viewBox="0 0 600 800" role="img" aria-label="The Bog Gallops"><defs><filter id="grain" x="0" y="0" width="100%" height="100%"><feTurbulence type="fractalNoise" baseFrequency=".9" numOctaves="2" seed="7"/><feColorMatrix type="matrix" values="0 0 0 0 .1  0 0 0 0 .08  0 0 0 0 .05  0 0 0 -2.2 1.25"/></filter><radialGradient id="vig" cx=".5" cy=".5" r=".75"><stop offset=".62" stop-color="#000" stop-opacity="0"/><stop offset="1" stop-color="#000" stop-opacity=".5"/></radialGradient><filter id="glow" x="-50%" y="-50%" width="200%" height="200%"><feGaussianBlur stdDeviation="6"/></filter><pattern id="tex" width="30" height="120" patternUnits="userSpaceOnUse"><path d="M0 0V120M30 0V120" stroke="#000" stroke-opacity=".28" stroke-width="2" fill="none"/><path d="M4 0V120" stroke="#fff" stroke-opacity=".16" stroke-width="2" fill="none"/><circle cx="16" cy="70" r="2.5" fill="#000" fill-opacity=".3"/></pattern><linearGradient id="sky" x1="0" y1="0" x2="0" y2="1"><stop offset="0" stop-color="#101c0e"/><stop offset=".8" stop-color="#4a6a38"/></linearGradient></defs><rect x="0" y="0" width="600" height="800" fill="url(#sky)"/>
<rect x="28" y="320" width="24" height="330" fill="#1d2b16" stroke="#15131b" stroke-width="4"/>
<path d="M-40 360Q40 250 120 360" fill="#1d2b16" stroke="#15131b" stroke-width="4" stroke-linejoin="round" stroke-linecap="round"/>
<path d="M-20 340q-4 40 4 70" fill="none" stroke="#141e0f" stroke-width="4" stroke-linejoin="round" stroke-linecap="round"/>
<path d="M10 340q-4 40 4 70" fill="none" stroke="#141e0f" stroke-width="4" stroke-linejoin="round" stroke-linecap="round"/>
<path d="M40 340q-4 40 4 70" fill="none" stroke="#141e0f" stroke-width="4" stroke-linejoin="round" stroke-linecap="round"/>
<path d="M70 340q-4 40 4 70" fill="none" stroke="#141e0f" stroke-width="4" stroke-linejoin="round" stroke-linecap="round"/>
<path d="M100 340q-4 40 4 70" fill="none" stroke="#141e0f" stroke-width="4" stroke-linejoin="round" stroke-linecap="round"/>
<rect x="138" y="390" width="24" height="260" fill="#1d2b16" stroke="#15131b" stroke-width="4"/>
<path d="M70 430Q150 320 230 430" fill="#1d2b16" stroke="#15131b" stroke-width="4" stroke-linejoin="round" stroke-linecap="round"/>
<path d="M90 410q-4 40 4 70" fill="none" stroke="#141e0f" stroke-width="4" stroke-linejoin="round" stroke-linecap="round"/>
<path d="M120 410q-4 40 4 70" fill="none" stroke="#141e0f" stroke-width="4" stroke-linejoin="round" stroke-linecap="round"/>
<path d="M150 410q-4 40 4 70" fill="none" stroke="#141e0f" stroke-width="4" stroke-linejoin="round" stroke-linecap="round"/>
<path d="M180 410q-4 40 4 70" fill="none" stroke="#141e0f" stroke-width="4" stroke-linejoin="round" stroke-linecap="round"/>
<path d="M210 410q-4 40 4 70" fill="none" stroke="#141e0f" stroke-width="4" stroke-linejoin="round" stroke-linecap="round"/>
<rect x="458" y="350" width="24" height="300" fill="#1d2b16" stroke="#15131b" stroke-width="4"/>
<path d="M390 390Q470 280 550 390" fill="#1d2b16" stroke="#15131b" stroke-width="4" stroke-linejoin="round" stroke-linecap="round"/>
<path d="M410 370q-4 40 4 70" fill="none" stroke="#141e0f" stroke-width="4" stroke-linejoin="round" stroke-linecap="round"/>
<path d="M440 370q-4 40 4 70" fill="none" stroke="#141e0f" stroke-width="4" stroke-linejoin="round" stroke-linecap="round"/>
<path d="M470 370q-4 40 4 70" fill="none" stroke="#141e0f" stroke-width="4" stroke-linejoin="round" stroke-linecap="round"/>
<path d="M500 370q-4 40 4 70" fill="none" stroke="#141e0f" stroke-width="4" stroke-linejoin="round" stroke-linecap="round"/>
<path d="M530 370q-4 40 4 70" fill="none" stroke="#141e0f" stroke-width="4" stroke-linejoin="round" stroke-linecap="round"/>
<rect x="548" y="290" width="24" height="360" fill="#1d2b16" stroke="#15131b" stroke-width="4"/>
<path d="M480 330Q560 220 640 330" fill="#1d2b16" stroke="#15131b" stroke-width="4" stroke-linejoin="round" stroke-linecap="round"/>
<path d="M500 310q-4 40 4 70" fill="none" stroke="#141e0f" stroke-width="4" stroke-linejoin="round" stroke-linecap="round"/>
<path d="M530 310q-4 40 4 70" fill="none" stroke="#141e0f" stroke-width="4" stroke-linejoin="round" stroke-linecap="round"/>
<path d="M560 310q-4 40 4 70" fill="none" stroke="#141e0f" stroke-width="4" stroke-linejoin="round" stroke-linecap="round"/>
<path d="M590 310q-4 40 4 70" fill="none" stroke="#141e0f" stroke-width="4" stroke-linejoin="round" stroke-linecap="round"/>
<path d="M620 310q-4 40 4 70" fill="none" stroke="#141e0f" stroke-width="4" stroke-linejoin="round" stroke-linecap="round"/>
<rect x="-10" y="450" width="620" height="26" fill="#dfe8d0" opacity=".12"/>
<rect x="-10" y="520" width="620" height="26" fill="#dfe8d0" opacity=".12"/>
<rect x="-10" y="590" width="620" height="26" fill="#dfe8d0" opacity=".12"/>
<rect x="0" y="650" width="600" height="150" fill="#3e3420"/>
<rect x="0" y="650" width="600" height="10" fill="#2e2718"/>
<ellipse cx="24.6" cy="722.3" rx="5.1" ry="2.9" fill="#302919"/>
<ellipse cx="294.2" cy="681.3" rx="5.7" ry="3.4" fill="#302919"/>
<ellipse cx="299.5" cy="771" rx="8.4" ry="3.1" fill="#302919"/>
<ellipse cx="205.6" cy="738.3" rx="5.4" ry="3.9" fill="#302919"/>
<ellipse cx="287.4" cy="782.1" rx="8.5" ry="2.6" fill="#302919"/>
<ellipse cx="227.6" cy="740.4" rx="4.1" ry="2.7" fill="#302919"/>
<ellipse cx="23.9" cy="667.2" rx="7.2" ry="3.6" fill="#302919"/>
<ellipse cx="442" cy="695.7" rx="4.7" ry="2" fill="#302919"/>
<ellipse cx="68.3" cy="673.7" rx="6.4" ry="3.5" fill="#302919"/>
<ellipse cx="125.6" cy="789" rx="5.3" ry="2.5" fill="#302919"/>
<ellipse cx="139.7" cy="712.5" rx="8.5" ry="3.1" fill="#302919"/>
<ellipse cx="188.6" cy="751.2" rx="8.9" ry="2.5" fill="#302919"/>
<ellipse cx="143.1" cy="758.1" rx="4.8" ry="2.6" fill="#302919"/>
<ellipse cx="138.8" cy="689.1" rx="5.8" ry="2.9" fill="#302919"/>
<ellipse cx="197.9" cy="719.1" rx="8.4" ry="2.2" fill="#302919"/>
<ellipse cx="215.4" cy="745.3" rx="5.5" ry="2.5" fill="#302919"/>
<ellipse cx="414.4" cy="676.4" rx="4.6" ry="3.1" fill="#302919"/>
<ellipse cx="43.4" cy="753" rx="6.8" ry="2.7" fill="#302919"/>
<ellipse cx="493.4" cy="784.7" rx="4.5" ry="2.9" fill="#302919"/>
<ellipse cx="32.1" cy="706.3" rx="7.7" ry="3" fill="#302919"/>
<ellipse cx="113.5" cy="758.9" rx="8.4" ry="2.6" fill="#302919"/>
<ellipse cx="149.6" cy="739.2" rx="8.8" ry="3.3" fill="#302919"/>
<ellipse cx="18.6" cy="783.5" rx="4.9" ry="3.3" fill="#302919"/>
<ellipse cx="274.9" cy="760.8" rx="4.9" ry="2.1" fill="#302919"/>
<ellipse cx="23" cy="668.7" rx="4.6" ry="3.3" fill="#302919"/>
<ellipse cx="465.3" cy="679.4" rx="7" ry="2.4" fill="#302919"/>
<ellipse cx="473.7" cy="693.4" rx="74.7" ry="13.3" fill="#2c3a24" stroke="#15131b" stroke-width="3"/>
<ellipse cx="463.7" cy="691.4" rx="18" ry="3" fill="#a5ea5d" opacity=".5"/>
<ellipse cx="470.5" cy="742" rx="74" ry="8.2" fill="#2c3a24" stroke="#15131b" stroke-width="3"/>
<ellipse cx="460.5" cy="740" rx="18" ry="3" fill="#a5ea5d" opacity=".5"/>
<ellipse cx="418.7" cy="756.5" rx="78.9" ry="10.7" fill="#2c3a24" stroke="#15131b" stroke-width="3"/>
<ellipse cx="408.7" cy="754.5" rx="18" ry="3" fill="#a5ea5d" opacity=".5"/>
<ellipse cx="466" cy="763.8" rx="78.4" ry="9.3" fill="#2c3a24" stroke="#15131b" stroke-width="3"/>
<ellipse cx="456" cy="761.8" rx="18" ry="3" fill="#a5ea5d" opacity=".5"/>
<path d="M0 650L600 650" stroke="#15131b" stroke-width="5" stroke-linecap="round"/>
<polygon points="30,470 570,470 570,380 30,380" fill="#5a482e" stroke="#15131b" stroke-width="5" stroke-linejoin="round"/>
<rect x="30" y="380" width="540" height="30" fill="#6a5536" stroke="#15131b" stroke-width="3"/>
<circle cx="48" cy="384" r="8" fill="#f3eedf" stroke="#15131b" stroke-width="2.5"/>
<circle cx="69.5" cy="384" r="8" fill="#9BE84B" stroke="#15131b" stroke-width="2.5"/>
<circle cx="91.3" cy="384" r="8" fill="#3FD6E0" stroke="#15131b" stroke-width="2.5"/>
<circle cx="113.3" cy="384" r="8" fill="#F04E98" stroke="#15131b" stroke-width="2.5"/>
<circle cx="136.9" cy="384" r="8" fill="#c86a3a" stroke="#15131b" stroke-width="2.5"/>
<circle cx="177.4" cy="384" r="8" fill="#f3eedf" stroke="#15131b" stroke-width="2.5"/>
<circle cx="197" cy="384" r="8" fill="#c86a3a" stroke="#15131b" stroke-width="2.5"/>
<circle cx="245" cy="384" r="8" fill="#3FD6E0" stroke="#15131b" stroke-width="2.5"/>
<circle cx="286" cy="384" r="8" fill="#9BE84B" stroke="#15131b" stroke-width="2.5"/>
<circle cx="310.9" cy="384" r="8" fill="#3FD6E0" stroke="#15131b" stroke-width="2.5"/>
<circle cx="329.6" cy="384" r="8" fill="#F04E98" stroke="#15131b" stroke-width="2.5"/>
<circle cx="352.1" cy="384" r="8" fill="#f3eedf" stroke="#15131b" stroke-width="2.5"/>
<circle cx="375.8" cy="384" r="8" fill="#F04E98" stroke="#15131b" stroke-width="2.5"/>
<circle cx="399" cy="384" r="8" fill="#5B7A2E" stroke="#15131b" stroke-width="2.5"/>
<circle cx="417.4" cy="384" r="8" fill="#c86a3a" stroke="#15131b" stroke-width="2.5"/>
<circle cx="442.4" cy="384" r="8" fill="#c86a3a" stroke="#15131b" stroke-width="2.5"/>
<circle cx="464.8" cy="384" r="8" fill="#F04E98" stroke="#15131b" stroke-width="2.5"/>
<circle cx="509.3" cy="384" r="8" fill="#5B7A2E" stroke="#15131b" stroke-width="2.5"/>
<circle cx="528.8" cy="384" r="8" fill="#c86a3a" stroke="#15131b" stroke-width="2.5"/>
<circle cx="551.3" cy="384" r="8" fill="#5B7A2E" stroke="#15131b" stroke-width="2.5"/>
<rect x="30" y="410" width="540" height="30" fill="#715e40" stroke="#15131b" stroke-width="3"/>
<circle cx="43.7" cy="414" r="8" fill="#F04E98" stroke="#15131b" stroke-width="2.5"/>
<circle cx="66" cy="414" r="8" fill="#F04E98" stroke="#15131b" stroke-width="2.5"/>
<circle cx="90.2" cy="414" r="8" fill="#F04E98" stroke="#15131b" stroke-width="2.5"/>
<circle cx="110.4" cy="414" r="8" fill="#9BE84B" stroke="#15131b" stroke-width="2.5"/>
<circle cx="135.5" cy="414" r="8" fill="#f3eedf" stroke="#15131b" stroke-width="2.5"/>
<circle cx="155.1" cy="414" r="8" fill="#9BE84B" stroke="#15131b" stroke-width="2.5"/>
<circle cx="175.8" cy="414" r="8" fill="#5B7A2E" stroke="#15131b" stroke-width="2.5"/>
<circle cx="224" cy="414" r="8" fill="#f3eedf" stroke="#15131b" stroke-width="2.5"/>
<circle cx="242.5" cy="414" r="8" fill="#3FD6E0" stroke="#15131b" stroke-width="2.5"/>
<circle cx="266.4" cy="414" r="8" fill="#F04E98" stroke="#15131b" stroke-width="2.5"/>
<circle cx="311.5" cy="414" r="8" fill="#5B7A2E" stroke="#15131b" stroke-width="2.5"/>
<circle cx="332.2" cy="414" r="8" fill="#3FD6E0" stroke="#15131b" stroke-width="2.5"/>
<circle cx="352.4" cy="414" r="8" fill="#5B7A2E" stroke="#15131b" stroke-width="2.5"/>
<circle cx="374.8" cy="414" r="8" fill="#f3eedf" stroke="#15131b" stroke-width="2.5"/>
<circle cx="399.9" cy="414" r="8" fill="#9BE84B" stroke="#15131b" stroke-width="2.5"/>
<circle cx="417" cy="414" r="8" fill="#F04E98" stroke="#15131b" stroke-width="2.5"/>
<circle cx="441.3" cy="414" r="8" fill="#9BE84B" stroke="#15131b" stroke-width="2.5"/>
<circle cx="466.2" cy="414" r="8" fill="#F04E98" stroke="#15131b" stroke-width="2.5"/>
<circle cx="484.4" cy="414" r="8" fill="#c86a3a" stroke="#15131b" stroke-width="2.5"/>
<circle cx="510" cy="414" r="8" fill="#3FD6E0" stroke="#15131b" stroke-width="2.5"/>
<circle cx="532.1" cy="414" r="8" fill="#f3eedf" stroke="#15131b" stroke-width="2.5"/>
<circle cx="552.7" cy="414" r="8" fill="#5B7A2E" stroke="#15131b" stroke-width="2.5"/>
<rect x="30" y="440" width="540" height="30" fill="#79664a" stroke="#15131b" stroke-width="3"/>
<circle cx="45.8" cy="444" r="8" fill="#9BE84B" stroke="#15131b" stroke-width="2.5"/>
<circle cx="69.7" cy="444" r="8" fill="#3FD6E0" stroke="#15131b" stroke-width="2.5"/>
<circle cx="113.6" cy="444" r="8" fill="#c86a3a" stroke="#15131b" stroke-width="2.5"/>
<circle cx="179.6" cy="444" r="8" fill="#F04E98" stroke="#15131b" stroke-width="2.5"/>
<circle cx="201.9" cy="444" r="8" fill="#9BE84B" stroke="#15131b" stroke-width="2.5"/>
<circle cx="224.8" cy="444" r="8" fill="#c86a3a" stroke="#15131b" stroke-width="2.5"/>
<circle cx="265.9" cy="444" r="8" fill="#9BE84B" stroke="#15131b" stroke-width="2.5"/>
<circle cx="308.5" cy="444" r="8" fill="#F04E98" stroke="#15131b" stroke-width="2.5"/>
<circle cx="331.1" cy="444" r="8" fill="#3FD6E0" stroke="#15131b" stroke-width="2.5"/>
<circle cx="351.2" cy="444" r="8" fill="#F04E98" stroke="#15131b" stroke-width="2.5"/>
<circle cx="374.3" cy="444" r="8" fill="#9BE84B" stroke="#15131b" stroke-width="2.5"/>
<circle cx="421" cy="444" r="8" fill="#f3eedf" stroke="#15131b" stroke-width="2.5"/>
<circle cx="441.3" cy="444" r="8" fill="#9BE84B" stroke="#15131b" stroke-width="2.5"/>
<circle cx="466.1" cy="444" r="8" fill="#5B7A2E" stroke="#15131b" stroke-width="2.5"/>
<circle cx="483.7" cy="444" r="8" fill="#F04E98" stroke="#15131b" stroke-width="2.5"/>
<circle cx="510.9" cy="444" r="8" fill="#c86a3a" stroke="#15131b" stroke-width="2.5"/>
<circle cx="527.9" cy="444" r="8" fill="#5B7A2E" stroke="#15131b" stroke-width="2.5"/>
<circle cx="552.7" cy="444" r="8" fill="#5B7A2E" stroke="#15131b" stroke-width="2.5"/>
<rect x="35" y="318" width="10" height="64" fill="#403320" stroke="#15131b" stroke-width="3"/>
<rect x="175" y="318" width="10" height="64" fill="#403320" stroke="#15131b" stroke-width="3"/>
<rect x="295" y="318" width="10" height="64" fill="#403320" stroke="#15131b" stroke-width="3"/>
<rect x="415" y="318" width="10" height="64" fill="#403320" stroke="#15131b" stroke-width="3"/>
<rect x="555" y="318" width="10" height="64" fill="#403320" stroke="#15131b" stroke-width="3"/>
<polygon points="18,330 582,330 560,296 40,296" fill="#3d5222" stroke="#15131b" stroke-width="5" stroke-linejoin="round"/>
<path d="M18 330L582 330" stroke="#15131b" stroke-width="6" stroke-linecap="round"/>
<path d="M60 296L60 262" stroke="#15131b" stroke-width="3" stroke-linecap="round"/>
<polygon points="60,262 86,270 60,278" fill="#9BE84B" stroke="#15131b" stroke-width="2.5" stroke-linejoin="round"/>
<path d="M140 296L140 262" stroke="#15131b" stroke-width="3" stroke-linecap="round"/>
<polygon points="140,262 166,270 140,278" fill="#5B7A2E" stroke="#15131b" stroke-width="2.5" stroke-linejoin="round"/>
<path d="M220 296L220 262" stroke="#15131b" stroke-width="3" stroke-linecap="round"/>
<polygon points="220,262 246,270 220,278" fill="#9BE84B" stroke="#15131b" stroke-width="2.5" stroke-linejoin="round"/>
<path d="M300 296L300 262" stroke="#15131b" stroke-width="3" stroke-linecap="round"/>
<polygon points="300,262 326,270 300,278" fill="#5B7A2E" stroke="#15131b" stroke-width="2.5" stroke-linejoin="round"/>
<path d="M380 296L380 262" stroke="#15131b" stroke-width="3" stroke-linecap="round"/>
<polygon points="380,262 406,270 380,278" fill="#9BE84B" stroke="#15131b" stroke-width="2.5" stroke-linejoin="round"/>
<path d="M460 296L460 262" stroke="#15131b" stroke-width="3" stroke-linecap="round"/>
<polygon points="460,262 486,270 460,278" fill="#5B7A2E" stroke="#15131b" stroke-width="2.5" stroke-linejoin="round"/>
<path d="M540 296L540 262" stroke="#15131b" stroke-width="3" stroke-linecap="round"/>
<polygon points="540,262 566,270 540,278" fill="#9BE84B" stroke="#15131b" stroke-width="2.5" stroke-linejoin="round"/>
<rect x="0" y="470" width="600" height="110" fill="#5a4a2a" stroke="#15131b" stroke-width="4"/>
<path d="M0 540Q300 520 600 540" fill="none" stroke="#f3eedf" stroke-width="4" stroke-linejoin="round" stroke-linecap="round" stroke-dasharray="18 14" opacity=".7"/>
<path d="M-10 578L212 578" stroke="#15131b" stroke-width="12" stroke-linecap="round"/>
<path d="M-10 578L212 578" stroke="#f3eedf" stroke-width="6" stroke-linecap="round"/>
<path d="M-10 604L212 604" stroke="#15131b" stroke-width="12" stroke-linecap="round"/>
<path d="M-10 604L212 604" stroke="#f3eedf" stroke-width="6" stroke-linecap="round"/>
<rect x="14" y="570" width="12" height="86" fill="#f3eedf" stroke="#15131b" stroke-width="4"/>
<rect x="70" y="570" width="12" height="86" fill="#f3eedf" stroke="#15131b" stroke-width="4"/>
<rect x="126" y="570" width="12" height="86" fill="#f3eedf" stroke="#15131b" stroke-width="4"/>
<rect x="182" y="570" width="12" height="86" fill="#f3eedf" stroke="#15131b" stroke-width="4"/>
<path d="M388 578L610 578" stroke="#15131b" stroke-width="12" stroke-linecap="round"/>
<path d="M388 578L610 578" stroke="#f3eedf" stroke-width="6" stroke-linecap="round"/>
<path d="M388 604L610 604" stroke="#15131b" stroke-width="12" stroke-linecap="round"/>
<path d="M388 604L610 604" stroke="#f3eedf" stroke-width="6" stroke-linecap="round"/>
<rect x="412" y="570" width="12" height="86" fill="#f3eedf" stroke="#15131b" stroke-width="4"/>
<rect x="468" y="570" width="12" height="86" fill="#f3eedf" stroke="#15131b" stroke-width="4"/>
<rect x="524" y="570" width="12" height="86" fill="#f3eedf" stroke="#15131b" stroke-width="4"/>
<rect x="580" y="570" width="12" height="86" fill="#f3eedf" stroke="#15131b" stroke-width="4"/>
<rect x="210" y="392" width="18" height="18" fill="#f3eedf"/>
<rect x="210" y="410" width="18" height="18" fill="#15131b"/>
<rect x="228" y="392" width="18" height="18" fill="#15131b"/>
<rect x="228" y="410" width="18" height="18" fill="#f3eedf"/>
<rect x="246" y="392" width="18" height="18" fill="#f3eedf"/>
<rect x="246" y="410" width="18" height="18" fill="#15131b"/>
<rect x="264" y="392" width="18" height="18" fill="#15131b"/>
<rect x="264" y="410" width="18" height="18" fill="#f3eedf"/>
<rect x="282" y="392" width="18" height="18" fill="#f3eedf"/>
<rect x="282" y="410" width="18" height="18" fill="#15131b"/>
<rect x="300" y="392" width="18" height="18" fill="#15131b"/>
<rect x="300" y="410" width="18" height="18" fill="#f3eedf"/>
<rect x="318" y="392" width="18" height="18" fill="#f3eedf"/>
<rect x="318" y="410" width="18" height="18" fill="#15131b"/>
<rect x="336" y="392" width="18" height="18" fill="#15131b"/>
<rect x="336" y="410" width="18" height="18" fill="#f3eedf"/>
<rect x="354" y="392" width="18" height="18" fill="#f3eedf"/>
<rect x="354" y="410" width="18" height="18" fill="#15131b"/>
<rect x="372" y="392" width="18" height="18" fill="#15131b"/>
<rect x="372" y="410" width="18" height="18" fill="#f3eedf"/>
<rect x="210" y="392" width="180" height="36" fill="none" stroke="#15131b" stroke-width="5"/>
<path d="M204 392Q300 350 396 392" fill="none" stroke="#15131b" stroke-width="14" stroke-linejoin="round" stroke-linecap="round"/>
<path d="M204 392Q300 350 396 392" fill="none" stroke="#9BE84B" stroke-width="8" stroke-linejoin="round" stroke-linecap="round"/>
<rect x="200" y="360" width="24" height="298" fill="#9BE84B" stroke="#15131b" stroke-width="5"/>
<circle cx="212" cy="352" r="14" fill="#5B7A2E" stroke="#15131b" stroke-width="4"/>
<rect x="376" y="360" width="24" height="298" fill="#9BE84B" stroke="#15131b" stroke-width="5"/>
<circle cx="388" cy="352" r="14" fill="#5B7A2E" stroke="#15131b" stroke-width="4"/>
<polygon points="224,470 150,488 150,680 224,654" fill="none" stroke="#15131b" stroke-width="5" stroke-linejoin="round"/>
<path d="M224 515L150 533" stroke="#15131b" stroke-width="8" stroke-linecap="round"/>
<path d="M224 515L150 533" stroke="#afed6f" stroke-width="4" stroke-linecap="round"/>
<path d="M224 560L150 584" stroke="#15131b" stroke-width="8" stroke-linecap="round"/>
<path d="M224 560L150 584" stroke="#afed6f" stroke-width="4" stroke-linecap="round"/>
<path d="M224 605L150 635" stroke="#15131b" stroke-width="8" stroke-linecap="round"/>
<path d="M224 605L150 635" stroke="#afed6f" stroke-width="4" stroke-linecap="round"/>
<path d="M224 470L150 488" stroke="#15131b" stroke-width="8" stroke-linecap="round"/>
<path d="M224 470L150 488" stroke="#afed6f" stroke-width="4" stroke-linecap="round"/>
<path d="M150 488L150 680" stroke="#15131b" stroke-width="8" stroke-linecap="round"/>
<path d="M150 488L150 680" stroke="#afed6f" stroke-width="4" stroke-linecap="round"/>
<polygon points="376,470 450,488 450,680 376,654" fill="none" stroke="#15131b" stroke-width="5" stroke-linejoin="round"/>
<path d="M376 515L450 533" stroke="#15131b" stroke-width="8" stroke-linecap="round"/>
<path d="M376 515L450 533" stroke="#afed6f" stroke-width="4" stroke-linecap="round"/>
<path d="M376 560L450 584" stroke="#15131b" stroke-width="8" stroke-linecap="round"/>
<path d="M376 560L450 584" stroke="#afed6f" stroke-width="4" stroke-linecap="round"/>
<path d="M376 605L450 635" stroke="#15131b" stroke-width="8" stroke-linecap="round"/>
<path d="M376 605L450 635" stroke="#afed6f" stroke-width="4" stroke-linecap="round"/>
<path d="M376 470L450 488" stroke="#15131b" stroke-width="8" stroke-linecap="round"/>
<path d="M376 470L450 488" stroke="#afed6f" stroke-width="4" stroke-linecap="round"/>
<path d="M450 488L450 680" stroke="#15131b" stroke-width="8" stroke-linecap="round"/>
<path d="M450 488L450 680" stroke="#afed6f" stroke-width="4" stroke-linecap="round"/>
<rect x="96" y="330" width="12" height="320" fill="#3a3640" stroke="#15131b" stroke-width="4"/>
<rect x="94.1" y="257.3" width="15.8" height="13.2" rx="3" fill="#c9c3b3" stroke="#15131b" stroke-width="4"/>
<path d="M133.7 286.3L142.5 277.5" stroke="#15131b" stroke-width="10" stroke-linecap="round"/>
<path d="M133.7 286.3L142.5 277.5" stroke="#c9c3b3" stroke-width="5" stroke-linecap="round"/>
<circle cx="102" cy="318" r="44" fill="#c9c3b3" stroke="#15131b" stroke-width="6"/>
<circle cx="102" cy="318" r="36.1" fill="#f3eedf" stroke="#15131b" stroke-width="4"/>
<path d="M102 290.7L102 284.6" stroke="#15131b" stroke-width="3" stroke-linecap="round"/>
<path d="M117.4 291.3L118.7 289" stroke="#15131b" stroke-width="2" stroke-linecap="round"/>
<path d="M128.7 302.6L131 301.3" stroke="#15131b" stroke-width="2" stroke-linecap="round"/>
<path d="M129.3 318L135.4 318" stroke="#15131b" stroke-width="3" stroke-linecap="round"/>
<path d="M128.7 333.4L131 334.7" stroke="#15131b" stroke-width="2" stroke-linecap="round"/>
<path d="M117.4 344.7L118.7 347" stroke="#15131b" stroke-width="2" stroke-linecap="round"/>
<path d="M102 345.3L102 351.4" stroke="#15131b" stroke-width="3" stroke-linecap="round"/>
<path d="M86.6 344.7L85.3 347" stroke="#15131b" stroke-width="2" stroke-linecap="round"/>
<path d="M75.3 333.4L73 334.7" stroke="#15131b" stroke-width="2" stroke-linecap="round"/>
<path d="M74.7 318L68.6 318" stroke="#15131b" stroke-width="3" stroke-linecap="round"/>
<path d="M75.3 302.6L73 301.3" stroke="#15131b" stroke-width="2" stroke-linecap="round"/>
<path d="M86.6 291.3L85.3 289" stroke="#15131b" stroke-width="2" stroke-linecap="round"/>
<path d="M102 318L121.8 302.6" stroke="#5B7A2E" stroke-width="5" stroke-linecap="round"/>
<path d="M102 318L99.8 290.7" stroke="#15131b" stroke-width="4" stroke-linecap="round"/>
<circle cx="102" cy="318" r="4" fill="#15131b"/>
<rect x="0" y="650" width="600" height="150" fill="#5a4a2a" opacity=".45"/>
<ellipse cx="270" cy="783" rx="5" ry="4.1" fill="#3a301b"/>
<ellipse cx="264" cy="777" rx="1.9" ry="2.4" fill="#3a301b"/>
<ellipse cx="267.8" cy="773.4" rx="1.9" ry="2.4" fill="#3a301b"/>
<ellipse cx="272.2" cy="773.4" rx="1.9" ry="2.4" fill="#3a301b"/>
<ellipse cx="276" cy="777" rx="1.9" ry="2.4" fill="#3a301b"/>
<ellipse cx="316" cy="757" rx="5" ry="4.1" fill="#3a301b"/>
<ellipse cx="310" cy="751" rx="1.9" ry="2.4" fill="#3a301b"/>
<ellipse cx="313.8" cy="747.4" rx="1.9" ry="2.4" fill="#3a301b"/>
<ellipse cx="318.2" cy="747.4" rx="1.9" ry="2.4" fill="#3a301b"/>
<ellipse cx="322" cy="751" rx="1.9" ry="2.4" fill="#3a301b"/>
<ellipse cx="282" cy="731" rx="5" ry="4.1" fill="#3a301b"/>
<ellipse cx="276" cy="725" rx="1.9" ry="2.4" fill="#3a301b"/>
<ellipse cx="279.8" cy="721.4" rx="1.9" ry="2.4" fill="#3a301b"/>
<ellipse cx="284.2" cy="721.4" rx="1.9" ry="2.4" fill="#3a301b"/>
<ellipse cx="288" cy="725" rx="1.9" ry="2.4" fill="#3a301b"/>
<ellipse cx="328" cy="705" rx="5" ry="4.1" fill="#3a301b"/>
<ellipse cx="322" cy="699" rx="1.9" ry="2.4" fill="#3a301b"/>
<ellipse cx="325.8" cy="695.4" rx="1.9" ry="2.4" fill="#3a301b"/>
<ellipse cx="330.2" cy="695.4" rx="1.9" ry="2.4" fill="#3a301b"/>
<ellipse cx="334" cy="699" rx="1.9" ry="2.4" fill="#3a301b"/>
<ellipse cx="294" cy="679" rx="5" ry="4.1" fill="#3a301b"/>
<ellipse cx="288" cy="673" rx="1.9" ry="2.4" fill="#3a301b"/>
<ellipse cx="291.8" cy="669.4" rx="1.9" ry="2.4" fill="#3a301b"/>
<ellipse cx="296.2" cy="669.4" rx="1.9" ry="2.4" fill="#3a301b"/>
<ellipse cx="300" cy="673" rx="1.9" ry="2.4" fill="#3a301b"/>
<ellipse cx="340" cy="653" rx="5" ry="4.1" fill="#3a301b"/>
<ellipse cx="334" cy="647" rx="1.9" ry="2.4" fill="#3a301b"/>
<ellipse cx="337.8" cy="643.4" rx="1.9" ry="2.4" fill="#3a301b"/>
<ellipse cx="342.2" cy="643.4" rx="1.9" ry="2.4" fill="#3a301b"/>
<ellipse cx="346" cy="647" rx="1.9" ry="2.4" fill="#3a301b"/>
<circle cx="489.7" cy="647.7" r="9" fill="#9BE84B" opacity="0.7" filter="url(#glow)"/>
<circle cx="489.7" cy="647.7" r="2.6" fill="#eaffb0"/>
<circle cx="97.2" cy="439" r="9" fill="#9BE84B" opacity="0.7" filter="url(#glow)"/>
<circle cx="97.2" cy="439" r="2.6" fill="#eaffb0"/>
<circle cx="250" cy="371.4" r="9" fill="#9BE84B" opacity="0.7" filter="url(#glow)"/>
<circle cx="250" cy="371.4" r="2.6" fill="#eaffb0"/>
<circle cx="439.7" cy="472.2" r="9" fill="#9BE84B" opacity="0.7" filter="url(#glow)"/>
<circle cx="439.7" cy="472.2" r="2.6" fill="#eaffb0"/>
<circle cx="345.6" cy="472.1" r="9" fill="#9BE84B" opacity="0.7" filter="url(#glow)"/>
<circle cx="345.6" cy="472.1" r="2.6" fill="#eaffb0"/>
<circle cx="305.5" cy="591.1" r="9" fill="#9BE84B" opacity="0.7" filter="url(#glow)"/>
<circle cx="305.5" cy="591.1" r="2.6" fill="#eaffb0"/>
<circle cx="396.7" cy="242.2" r="9" fill="#9BE84B" opacity="0.7" filter="url(#glow)"/>
<circle cx="396.7" cy="242.2" r="2.6" fill="#eaffb0"/>
<circle cx="325.6" cy="472.5" r="9" fill="#9BE84B" opacity="0.7" filter="url(#glow)"/>
<circle cx="325.6" cy="472.5" r="2.6" fill="#eaffb0"/>
<circle cx="451.9" cy="522.2" r="9" fill="#9BE84B" opacity="0.7" filter="url(#glow)"/>
<circle cx="451.9" cy="522.2" r="2.6" fill="#eaffb0"/>
<circle cx="229.4" cy="496.3" r="9" fill="#9BE84B" opacity="0.7" filter="url(#glow)"/>
<circle cx="229.4" cy="496.3" r="2.6" fill="#eaffb0"/>
<circle cx="491" cy="383.5" r="9" fill="#9BE84B" opacity="0.7" filter="url(#glow)"/>
<circle cx="491" cy="383.5" r="2.6" fill="#eaffb0"/>
<circle cx="168.6" cy="227.8" r="9" fill="#9BE84B" opacity="0.7" filter="url(#glow)"/>
<circle cx="168.6" cy="227.8" r="2.6" fill="#eaffb0"/>
<circle cx="58.8" cy="359.5" r="9" fill="#9BE84B" opacity="0.7" filter="url(#glow)"/>
<circle cx="58.8" cy="359.5" r="2.6" fill="#eaffb0"/>
<circle cx="552.7" cy="446.5" r="9" fill="#9BE84B" opacity="0.7" filter="url(#glow)"/>
<circle cx="552.7" cy="446.5" r="2.6" fill="#eaffb0"/>
<circle cx="570" cy="372.7" r="9" fill="#9BE84B" opacity="0.7" filter="url(#glow)"/>
<circle cx="570" cy="372.7" r="2.6" fill="#eaffb0"/>
<circle cx="175.2" cy="456.7" r="9" fill="#9BE84B" opacity="0.7" filter="url(#glow)"/>
<circle cx="175.2" cy="456.7" r="2.6" fill="#eaffb0"/>
<circle cx="172.5" cy="396.4" r="9" fill="#9BE84B" opacity="0.7" filter="url(#glow)"/>
<circle cx="172.5" cy="396.4" r="2.6" fill="#eaffb0"/>
<circle cx="360.1" cy="620.5" r="9" fill="#9BE84B" opacity="0.7" filter="url(#glow)"/>
<circle cx="360.1" cy="620.5" r="2.6" fill="#eaffb0"/>
<circle cx="577" cy="321.8" r="9" fill="#9BE84B" opacity="0.7" filter="url(#glow)"/>
<circle cx="577" cy="321.8" r="2.6" fill="#eaffb0"/>
<circle cx="344.1" cy="595" r="9" fill="#9BE84B" opacity="0.7" filter="url(#glow)"/>
<circle cx="344.1" cy="595" r="2.6" fill="#eaffb0"/>
<circle cx="492.9" cy="633.3" r="9" fill="#9BE84B" opacity="0.7" filter="url(#glow)"/>
<circle cx="492.9" cy="633.3" r="2.6" fill="#eaffb0"/>
<circle cx="31.2" cy="282.2" r="9" fill="#9BE84B" opacity="0.7" filter="url(#glow)"/>
<circle cx="31.2" cy="282.2" r="2.6" fill="#eaffb0"/>
<path d="M8 800q-10 -80 -20 -150" fill="none" stroke="#2b3a1a" stroke-width="5" stroke-linejoin="round" stroke-linecap="round"/>
<ellipse cx="-12" cy="650" rx="5" ry="16" fill="#6a4a2a" stroke="#15131b" stroke-width="3"/>
<path d="M18 800q0 -80 0 -150" fill="none" stroke="#2b3a1a" stroke-width="5" stroke-linejoin="round" stroke-linecap="round"/>
<ellipse cx="18" cy="650" rx="5" ry="16" fill="#6a4a2a" stroke="#15131b" stroke-width="3"/>
<path d="M28 800q10 -80 20 -150" fill="none" stroke="#2b3a1a" stroke-width="5" stroke-linejoin="round" stroke-linecap="round"/>
<ellipse cx="48" cy="650" rx="5" ry="16" fill="#6a4a2a" stroke="#15131b" stroke-width="3"/>
<path d="M572 800q-10 -80 -20 -150" fill="none" stroke="#2b3a1a" stroke-width="5" stroke-linejoin="round" stroke-linecap="round"/>
<ellipse cx="552" cy="650" rx="5" ry="16" fill="#6a4a2a" stroke="#15131b" stroke-width="3"/>
<path d="M582 800q0 -80 0 -150" fill="none" stroke="#2b3a1a" stroke-width="5" stroke-linejoin="round" stroke-linecap="round"/>
<ellipse cx="582" cy="650" rx="5" ry="16" fill="#6a4a2a" stroke="#15131b" stroke-width="3"/>
<path d="M592 800q10 -80 20 -150" fill="none" stroke="#2b3a1a" stroke-width="5" stroke-linejoin="round" stroke-linecap="round"/>
<ellipse cx="612" cy="650" rx="5" ry="16" fill="#6a4a2a" stroke="#15131b" stroke-width="3"/>
<rect x="-10" y="620" width="620" height="30" fill="#dfe8d0" opacity=".18"/>
<rect x="0" y="0" width="600" height="800" fill="#000" filter="url(#grain)" opacity=".42"/>
<rect x="0" y="0" width="600" height="800" fill="url(#vig)"/></svg>