<svg xmlns="http://www.w3.org/2000/svg" width="600" height="800" viewBox="0 0 600 800" role="img" aria-label="Customs Shed 9"><defs><filter id="grain" x="0" y="0" width="100%" height="100%"><feTurbulence type="fractalNoise" baseFrequency=".9" numOctaves="2" seed="7"/><feColorMatrix type="matrix" values="0 0 0 0 .1  0 0 0 0 .08  0 0 0 0 .05  0 0 0 -2.2 1.25"/></filter><radialGradient id="vig" cx=".5" cy=".5" r=".75"><stop offset=".62" stop-color="#000" stop-opacity="0"/><stop offset="1" stop-color="#000" stop-opacity=".5"/></radialGradient><filter id="glow" x="-50%" y="-50%" width="200%" height="200%"><feGaussianBlur stdDeviation="6"/></filter><pattern id="tex" width="16" height="16" patternUnits="userSpaceOnUse"><path d="M12 0V16" stroke="#000" stroke-opacity=".28" stroke-width="2" fill="none"/><path d="M5 0V16" stroke="#fff" stroke-opacity=".16" stroke-width="2" fill="none"/></pattern><linearGradient id="sky" x1="0" y1="0" x2="0" y2="1"><stop offset="0" stop-color="#140e26"/><stop offset=".8" stop-color="#5a4050"/></linearGradient><pattern id="haz" width="30" height="30" patternUnits="userSpaceOnUse" patternTransform="rotate(45)"><rect width="30" height="30" fill="#F4C542"/><rect width="15" height="30" fill="#1B1A22"/></pattern></defs><rect x="0" y="0" width="600" height="800" fill="url(#sky)"/>
<circle cx="475.8" cy="238.2" r="2.2" fill="#f7eecf" opacity="0.56"/>
<circle cx="384.6" cy="309.1" r="1.2" fill="#f7eecf" opacity="0.71"/>
<circle cx="151.6" cy="154.1" r="2.2" fill="#f7eecf" opacity="0.43"/>
<circle cx="511.9" cy="25" r="2.2" fill="#f7eecf" opacity="0.70"/>
<circle cx="488.5" cy="460.1" r="1.6" fill="#f7eecf" opacity="0.53"/>
<circle cx="367" cy="234.1" r="2.2" fill="#f7eecf" opacity="0.58"/>
<circle cx="120.2" cy="264.4" r="1.2" fill="#f7eecf" opacity="0.69"/>
<circle cx="557.4" cy="41" r="1.6" fill="#f7eecf" opacity="0.57"/>
<circle cx="137.4" cy="179.5" r="2.2" fill="#f7eecf" opacity="0.79"/>
<circle cx="197.6" cy="237.7" r="2.2" fill="#f7eecf" opacity="0.77"/>
<circle cx="406.6" cy="505.3" r="1.6" fill="#f7eecf" opacity="0.39"/>
<circle cx="207.1" cy="174.8" r="1.6" fill="#f7eecf" opacity="0.50"/>
<circle cx="478.9" cy="447.8" r="2.2" fill="#f7eecf" opacity="0.60"/>
<circle cx="213.6" cy="503.6" r="1.2" fill="#f7eecf" opacity="0.83"/>
<circle cx="76" cy="377.5" r="1.6" fill="#f7eecf" opacity="0.49"/>
<circle cx="197.8" cy="88.5" r="1.6" fill="#f7eecf" opacity="0.37"/>
<circle cx="18.7" cy="517.6" r="1.6" fill="#f7eecf" opacity="0.72"/>
<circle cx="552" cy="444" r="2.2" fill="#f7eecf" opacity="0.79"/>
<rect x="0" y="530" width="600" height="120" fill="#e8a040" opacity=".18"/>
<rect x="62" y="320" width="16" height="330" fill="#1e1832" stroke="#15131b" stroke-width="4"/>
<path d="M0 330L160 330" stroke="#15131b" stroke-width="12" stroke-linecap="round"/>
<path d="M0 330L160 330" stroke="#1e1832" stroke-width="7" stroke-linecap="round"/>
<path d="M130 330L130 420" stroke="#15131b" stroke-width="3" stroke-linecap="round"/>
<rect x="120" y="418" width="20" height="12" fill="#F4C542" stroke="#15131b" stroke-width="3"/>
<rect x="512" y="320" width="16" height="330" fill="#1e1832" stroke="#15131b" stroke-width="4"/>
<path d="M450 330L610 330" stroke="#15131b" stroke-width="12" stroke-linecap="round"/>
<path d="M450 330L610 330" stroke="#1e1832" stroke-width="7" stroke-linecap="round"/>
<path d="M580 330L580 420" stroke="#15131b" stroke-width="3" stroke-linecap="round"/>
<rect x="570" y="418" width="20" height="12" fill="#F4C542" stroke="#15131b" stroke-width="3"/>
<rect x="130" y="610" width="56" height="40" fill="#7a3a3a" stroke="#15131b" stroke-width="3"/>
<rect x="188" y="610" width="56" height="40" fill="#3a5a7a" stroke="#15131b" stroke-width="3"/>
<rect x="188" y="570" width="56" height="40" fill="#6a6a3a" stroke="#15131b" stroke-width="3"/>
<rect x="246" y="610" width="56" height="40" fill="#6a6a3a" stroke="#15131b" stroke-width="3"/>
<rect x="246" y="570" width="56" height="40" fill="#4a3a6a" stroke="#15131b" stroke-width="3"/>
<rect x="246" y="530" width="56" height="40" fill="#7a3a3a" stroke="#15131b" stroke-width="3"/>
<rect x="304" y="610" width="56" height="40" fill="#4a3a6a" stroke="#15131b" stroke-width="3"/>
<rect x="362" y="610" width="56" height="40" fill="#7a3a3a" stroke="#15131b" stroke-width="3"/>
<rect x="362" y="570" width="56" height="40" fill="#3a5a7a" stroke="#15131b" stroke-width="3"/>
<rect x="420" y="610" width="56" height="40" fill="#3a5a7a" stroke="#15131b" stroke-width="3"/>
<rect x="420" y="570" width="56" height="40" fill="#6a6a3a" stroke="#15131b" stroke-width="3"/>
<rect x="420" y="530" width="56" height="40" fill="#4a3a6a" stroke="#15131b" stroke-width="3"/>
<rect x="478" y="610" width="56" height="40" fill="#6a6a3a" stroke="#15131b" stroke-width="3"/>
<rect x="0" y="650" width="600" height="150" fill="#3a3a42"/>
<rect x="0" y="650" width="600" height="10" fill="#2c2c32"/>
<path d="M0 686L600 686" stroke="#29292e" stroke-width="3" stroke-linecap="round"/>
<path d="M0 722L600 722" stroke="#29292e" stroke-width="3" stroke-linecap="round"/>
<path d="M0 758L600 758" stroke="#29292e" stroke-width="3" stroke-linecap="round"/>
<path d="M0 794L600 794" stroke="#29292e" stroke-width="3" stroke-linecap="round"/>
<rect x="0" y="778" width="600" height="22" fill="url(#haz)"/>
<path d="M0 778L600 778" stroke="#15131b" stroke-width="4" stroke-linecap="round"/>
<path d="M0 650L600 650" stroke="#15131b" stroke-width="5" stroke-linecap="round"/>
<rect x="214" y="250" width="172" height="220" fill="#000" opacity=".3"/>
<rect x="214" y="470" width="172" height="190" fill="#0b0a10"/>
<path d="M214 470L386 470" stroke="#373540" stroke-width="6" stroke-linecap="round"/>
<rect x="332" y="540" width="38" height="110" fill="#735a28" stroke="#15131b" stroke-width="4"/>
<polygon points="-10,90 214,250 214,660 -10,790" fill="#2b2a33"/>
<polygon points="-10,90 214,250 214,660 -10,790" fill="url(#tex)"/>
<polygon points="-10,90 214,250 214,660 -10,790" fill="none" stroke="#15131b" stroke-width="5" stroke-linejoin="round"/>
<polygon points="610,90 386,250 386,660 610,790" fill="#222229"/>
<polygon points="610,90 386,250 386,660 610,790" fill="url(#tex)"/>
<polygon points="610,90 386,250 386,660 610,790" fill="none" stroke="#15131b" stroke-width="5" stroke-linejoin="round"/>
<polygon points="-10,790 214,660 386,660 610,790 610,800 -10,800" fill="#202024" stroke="#15131b" stroke-width="5" stroke-linejoin="round"/>
<path d="M600 210L400 318" fill="none" stroke="#15131b" stroke-width="16" stroke-linejoin="round" stroke-linecap="round"/>
<path d="M600 210L400 318" fill="none" stroke="#9f802b" stroke-width="9" stroke-linejoin="round" stroke-linecap="round"/>
<path d="M470 280L470 720" fill="none" stroke="#15131b" stroke-width="16" stroke-linejoin="round" stroke-linecap="round"/>
<path d="M470 280L470 720" fill="none" stroke="#9f802b" stroke-width="9" stroke-linejoin="round" stroke-linecap="round"/>
<polygon points="60,330 140,360 140,470 60,450" fill="#2e224a" stroke="#15131b" stroke-width="4" stroke-linejoin="round"/>
<polygon points="72.5,415.6 83.5,411.2 100,410.1 112.1,411.2 118.7,405.7 124.2,404.6 130.8,407.9 129.7,410.1 122,411.2 116.5,417.8 124.2,424.4 122,425.5 113.2,420 103.3,421.1 92.3,420 81.3,422.2 71.4,426.6 70.3,424.4 79.1,418.9 72.5,418.9 63.7,415.6" fill="#f5cb55" stroke="#15131b" stroke-width="3" stroke-linejoin="round"/>
<path d="M140 290L240 314L240 334" fill="none" stroke="#15131b" stroke-width="5" stroke-linejoin="round" stroke-linecap="round"/>
<polygon points="228,344 252,344 360,690 110,690" fill="#ffc95a" opacity=".16"/>
<ellipse cx="236" cy="690" rx="128" ry="22" fill="#ffc95a" opacity=".22"/>
<circle cx="240" cy="346" r="44" fill="#ffc95a" opacity="0.55" filter="url(#glow)"/>
<circle cx="240" cy="346" r="12" fill="#ffe4ac" stroke="#15131b" stroke-width="3"/>
<rect x="233" y="330" width="14" height="8" fill="#6a6a6a" stroke="#15131b" stroke-width="3"/>
<ellipse cx="244" cy="530" rx="5" ry="3" fill="#F4C542"/>
<circle cx="244" cy="530" r="8" fill="#F4C542" opacity="0.5" filter="url(#glow)"/>
<ellipse cx="260" cy="530" rx="5" ry="3" fill="#F4C542"/>
<circle cx="260" cy="530" r="8" fill="#F4C542" opacity="0.5" filter="url(#glow)"/>
<rect x="400" y="624" width="96" height="96" fill="#786147" stroke="#15131b" stroke-width="4"/>
<rect x="406" y="630" width="84" height="84" fill="none" stroke="#15131b" stroke-width="3"/>
<path d="M406 630L490 714" stroke="#15131b" stroke-width="3" stroke-linecap="round"/>
<path d="M490 630L406 714" stroke="#15131b" stroke-width="3" stroke-linecap="round"/>
<rect x="492" y="640" width="100" height="100" fill="#6a553e" stroke="#15131b" stroke-width="4"/>
<rect x="498" y="646" width="88" height="88" fill="none" stroke="#15131b" stroke-width="3"/>
<path d="M498 646L586 734" stroke="#15131b" stroke-width="3" stroke-linecap="round"/>
<path d="M586 646L498 734" stroke="#15131b" stroke-width="3" stroke-linecap="round"/>
<rect x="430" y="544" width="80" height="80" fill="#806a52" stroke="#15131b" stroke-width="4"/>
<rect x="436" y="550" width="68" height="68" fill="none" stroke="#15131b" stroke-width="3"/>
<path d="M436 550L504 618" stroke="#15131b" stroke-width="3" stroke-linecap="round"/>
<path d="M504 550L436 618" stroke="#15131b" stroke-width="3" stroke-linecap="round"/>
<rect x="40" y="640" width="70" height="96" rx="4" fill="#4a5058" stroke="#15131b" stroke-width="5"/>
<rect x="32" y="628" width="86" height="16" rx="4" fill="#5a6068" stroke="#15131b" stroke-width="5"/>
<path d="M56 652L56 726" stroke="#000" stroke-width="3" stroke-linecap="round" opacity=".3"/>
<path d="M76 652L76 726" stroke="#000" stroke-width="3" stroke-linecap="round" opacity=".3"/>
<path d="M96 652L96 726" stroke="#000" stroke-width="3" stroke-linecap="round" opacity=".3"/>
<ellipse cx="240" cy="760" rx="54" ry="12" fill="#1a1a20" stroke="#15131b" stroke-width="4"/>
<path d="M200 752L200 768" stroke="#555" stroke-width="3" stroke-linecap="round"/>
<path d="M214 752L214 768" stroke="#555" stroke-width="3" stroke-linecap="round"/>
<path d="M228 752L228 768" stroke="#555" stroke-width="3" stroke-linecap="round"/>
<path d="M242 752L242 768" stroke="#555" stroke-width="3" stroke-linecap="round"/>
<path d="M256 752L256 768" stroke="#555" stroke-width="3" stroke-linecap="round"/>
<path d="M270 752L270 768" stroke="#555" stroke-width="3" stroke-linecap="round"/>
<g opacity="0.45">
<circle cx="236" cy="728" r="20.5" fill="#7b7975"/>
<circle cx="223.4" cy="732.5" r="15.1" fill="#7b7975"/>
<circle cx="249.5" cy="730.7" r="13.7" fill="#7b7975"/>
<circle cx="258" cy="690" r="24.5" fill="#7b7975"/>
<circle cx="242.6" cy="695.5" r="17.9" fill="#7b7975"/>
<circle cx="274.5" cy="693.3" r="16.1" fill="#7b7975"/>
<circle cx="236" cy="648" r="20.5" fill="#7b7975"/>
<circle cx="223.4" cy="652.5" r="15.1" fill="#7b7975"/>
<circle cx="249.5" cy="650.7" r="13.7" fill="#7b7975"/>
<circle cx="254" cy="612" r="15.5" fill="#7b7975"/>
<circle cx="244.9" cy="615.2" r="11.6" fill="#7b7975"/>
<circle cx="263.8" cy="614" r="10.6" fill="#7b7975"/>
<circle cx="236" cy="728" r="17" fill="#e0dcd4"/>
<circle cx="223.4" cy="732.5" r="11.6" fill="#e0dcd4"/>
<circle cx="249.5" cy="730.7" r="10.2" fill="#e0dcd4"/>
<circle cx="258" cy="690" r="21" fill="#e0dcd4"/>
<circle cx="242.6" cy="695.5" r="14.4" fill="#e0dcd4"/>
<circle cx="274.5" cy="693.3" r="12.6" fill="#e0dcd4"/>
<circle cx="236" cy="648" r="17" fill="#e0dcd4"/>
<circle cx="223.4" cy="652.5" r="11.6" fill="#e0dcd4"/>
<circle cx="249.5" cy="650.7" r="10.2" fill="#e0dcd4"/>
<circle cx="254" cy="612" r="12" fill="#e0dcd4"/>
<circle cx="244.9" cy="615.2" r="8.1" fill="#e0dcd4"/>
<circle cx="263.8" cy="614" r="7.1" fill="#e0dcd4"/>
<circle cx="230.6" cy="722.6" r="6.3" fill="#fff" opacity=".5"/>
<circle cx="251.4" cy="683.4" r="7.7" fill="#fff" opacity=".5"/>
<circle cx="230.6" cy="642.6" r="6.3" fill="#fff" opacity=".5"/>
<circle cx="250.1" cy="608.1" r="4.5" fill="#fff" opacity=".5"/>
</g>
<ellipse cx="300" cy="700" rx="50" ry="7" fill="#ffce6a" opacity=".35"/>
<rect x="134" y="700" width="32" height="40" rx="4" fill="#3a3a42" stroke="#15131b" stroke-width="4"/>
<ellipse cx="150" cy="698" rx="22" ry="8" fill="#4a4a52" stroke="#15131b" stroke-width="4"/>
<path d="M134 714q-20 10 -40 4q-10 8 0 16" fill="none" stroke="#c8a870" stroke-width="5" stroke-linejoin="round" stroke-linecap="round"/>
<ellipse cx="106" cy="736" rx="16" ry="6" fill="#c8a870" stroke="#15131b" stroke-width="3"/>
<rect x="0" y="0" width="600" height="800" fill="#000" filter="url(#grain)" opacity=".42"/>
<rect x="0" y="0" width="600" height="800" fill="url(#vig)"/></svg>